<?xml version="1.0" encoding="UTF-8" standalone="no"?>
<svg 
  version="1.1" 
  xmlns="http://www.w3.org/2000/svg" 
  xmlns:xlink="http://www.w3.org/1999/xlink" 
  xmlns:svg="http://www.w3.org/2000/svg"
  xmlns:rdf="http://www.w3.org/1999/02/22-rdf-syntax-ns#"
  xmlns:cc="http://creativecommons.org/ns#"
  xmlns:dc="http://purl.org/dc/elements/1.1/"
  viewBox="0 0 768 768"
  width="768"
  height="768"
>
<style>svg {background-color: white; }</style>"
<metadata id="metadata1">
Created by https://svgstud.io and licensed under CC-BY-SA 4.0 license. Please attribute https://svgstud.io
</metadata>
<metadata id="prompt">
a refined cinema screen from the pov of an atendee
</metadata>
<metadata id="version">
7
</metadata>
<metadata id="metadata2">
<rdf:RDF>
<cc:Work
    rdf:about="">
    <cc:license
    rdf:resource="http://creativecommons.org/licenses/by-sa/4.0/" />
    <dc:creator>
        <cc:Agent>
            <dc:title>https://svgstud.io</dc:title>
        </cc:Agent>
    </dc:creator>
</cc:Work>
<cc:License
    rdf:about="http://creativecommons.org/licenses/by-sa/4.0/">
    <cc:permits
    rdf:resource="http://creativecommons.org/ns#Reproduction" />
    <cc:permits
    rdf:resource="http://creativecommons.org/ns#Distribution" />
    <cc:requires
    rdf:resource="http://creativecommons.org/ns#Notice" />
    <cc:requires
    rdf:resource="http://creativecommons.org/ns#Attribution" />
    <cc:permits
    rdf:resource="http://creativecommons.org/ns#DerivativeWorks" />
    <cc:requires
    rdf:resource="http://creativecommons.org/ns#ShareAlike" />
</cc:License>
</rdf:RDF>
</metadata>
<metadata id="uid">
0458e75ae3a34ee3cac5fa01f618807ae06db9b0873ef9f9df157a6fcd3e05e2
</metadata>
<path stroke="none" fill="black" fill-rule="evenodd" d="M91.03,768.00C66.57,768.00 66.25,767.97 61.59,765.50C59.01,764.12 53.65,760.59 49.70,757.66C45.74,754.72 39.76,749.66 36.42,746.41C33.07,743.16 28.18,737.58 25.56,734.00C22.93,730.42 19.53,725.01 17.99,721.96C16.45,718.92 14.23,713.27 13.05,709.40C10.95,702.48 10.92,701.31 11.21,637.27C11.37,601.46 11.73,571.93 12.01,571.65C12.30,571.37 17.70,570.81 24.01,570.41C34.34,569.76 35.37,569.84 34.21,571.24C33.06,572.63 34.18,572.88 44.44,573.52C51.93,573.99 58.85,573.82 64.23,573.04C68.78,572.38 76.70,570.97 81.84,569.92C86.97,568.87 91.70,567.68 92.34,567.27C92.99,566.85 91.54,566.23 89.00,565.84C86.53,565.46 82.56,565.11 80.19,565.07C77.82,565.03 76.13,564.60 76.44,564.10C76.74,563.61 80.93,562.51 85.74,561.65C90.56,560.79 101.21,559.15 109.40,558.00C117.60,556.85 125.15,555.46 126.18,554.90C127.21,554.35 127.75,553.41 127.38,552.81C126.91,552.05 121.92,551.89 111.10,552.31C102.52,552.63 84.47,554.26 71.00,555.93C57.52,557.60 38.87,560.29 29.54,561.91C20.22,563.53 12.24,564.65 11.82,564.39C11.40,564.13 11.32,553.02 11.65,539.71C11.98,526.39 12.56,515.16 12.93,514.75C13.30,514.33 21.16,513.56 30.41,513.03C39.65,512.51 47.78,511.60 48.48,511.01C49.18,510.43 50.03,508.59 50.37,506.92C50.70,505.25 53.02,501.55 55.52,498.69C58.01,495.84 60.83,491.93 61.78,490.00C63.44,486.61 63.66,486.51 68.50,486.82C71.25,486.99 74.62,486.68 76.00,486.13C78.35,485.19 78.25,485.11 74.50,484.87C72.30,484.73 69.15,484.56 67.50,484.51C64.92,484.42 64.46,483.99 64.20,481.37C64.03,479.62 64.51,477.82 65.33,477.14C66.40,476.25 67.47,476.23 69.63,477.08C71.48,477.80 75.69,477.97 81.50,477.55C86.45,477.19 90.90,476.50 91.38,476.02C91.89,475.51 90.73,474.85 88.66,474.46C86.67,474.09 81.10,473.72 76.28,473.64C67.50,473.50 67.50,473.50 67.78,345.21C68.03,231.41 67.89,216.67 66.53,214.74C65.69,213.54 65.00,211.62 65.00,210.48C65.00,209.33 65.51,207.89 66.13,207.27C66.96,206.44 66.65,204.90 64.93,201.32C63.65,198.67 60.89,193.84 58.80,190.59C56.71,187.35 55.00,184.10 55.00,183.38C55.00,182.67 57.21,181.42 59.90,180.62C62.60,179.82 68.85,178.85 73.79,178.46C78.73,178.08 83.26,177.46 83.85,177.09C84.44,176.73 84.66,175.43 84.34,174.20C84.02,172.97 82.70,171.71 81.38,171.38C80.07,171.05 78.33,171.04 77.50,171.36C76.68,171.68 76.00,171.52 76.00,171.01C76.00,170.51 77.58,169.85 79.50,169.55C81.42,169.25 84.46,168.79 86.25,168.54C88.04,168.28 90.97,168.40 92.76,168.79C94.73,169.22 99.42,172.45 104.53,176.91C109.21,180.99 113.29,185.30 113.59,186.50C113.97,188.02 111.62,193.37 105.86,204.09C97.58,219.50 97.58,219.50 97.26,233.00C97.08,240.43 97.30,297.57 97.74,360.00C98.54,473.50 98.54,473.50 100.77,477.49C102.00,479.68 103.00,482.28 103.00,483.26C103.00,484.24 104.55,488.14 106.45,491.91C108.35,495.68 109.63,499.04 109.29,499.38C108.95,499.72 106.83,500.00 104.58,500.01C102.34,500.01 93.97,499.49 86.00,498.85C78.03,498.20 68.51,498.01 64.85,498.41C61.19,498.81 57.36,499.75 56.35,500.50C54.85,501.61 54.74,502.11 55.78,503.16C56.49,503.88 60.88,504.76 65.78,505.17C71.36,505.62 79.53,505.36 88.50,504.44C96.20,503.65 104.38,503.00 106.67,503.00C108.96,503.00 111.46,502.76 112.23,502.47C113.27,502.06 113.52,500.45 113.19,496.00C112.96,492.74 113.06,488.48 113.43,486.53C114.09,483.00 114.09,483.00 145.30,482.90C162.46,482.85 184.02,482.51 193.20,482.15C204.37,481.72 210.31,481.09 211.14,480.26C212.13,479.27 212.03,478.30 210.69,475.48C209.76,473.53 209.00,470.58 209.00,468.93C209.00,467.28 208.37,465.70 207.59,465.40C206.81,465.10 204.90,465.52 203.34,466.33C201.77,467.13 199.63,468.75 198.57,469.92C197.11,471.54 196.45,471.74 195.84,470.77C195.39,470.07 195.02,468.49 195.02,467.25C195.00,465.54 194.42,465.00 192.57,465.00C191.24,465.00 189.44,465.71 188.57,466.57C187.71,467.44 187.00,469.18 187.00,470.45C187.00,471.71 186.71,474.18 186.36,475.93C185.86,478.44 185.29,479.04 183.61,478.80C181.69,478.53 181.44,477.66 180.86,469.39C180.51,464.37 179.65,459.20 178.95,457.89C178.25,456.57 176.18,453.52 174.34,451.11C172.50,448.69 171.00,446.13 171.00,445.43C171.00,444.43 171.73,444.37 174.25,445.17C176.28,445.81 205.57,446.44 252.00,446.85C292.98,447.21 382.98,447.50 452.00,447.50C553.15,447.50 577.94,447.25 579.78,446.20C581.03,445.48 581.81,444.50 581.50,444.01C581.20,443.52 578.83,442.83 576.23,442.47C573.63,442.12 570.64,441.59 569.60,441.30C567.74,440.78 567.71,438.03 568.22,319.13C568.51,252.24 568.44,196.38 568.07,195.00C567.40,192.53 567.28,192.50 556.94,192.61C551.20,192.67 534.80,193.25 520.50,193.90C506.20,194.56 479.20,195.50 460.50,196.01C441.80,196.51 417.27,197.38 406.00,197.95C394.73,198.51 375.82,199.66 364.00,200.50C352.18,201.34 341.04,202.26 339.25,202.56C337.46,202.85 336.00,202.71 336.00,202.25C336.00,201.78 336.47,200.93 337.04,200.36C337.75,199.65 337.73,198.42 336.96,196.41C336.35,194.80 336.13,191.62 336.48,189.29C336.86,186.75 338.99,182.22 341.88,177.79C344.51,173.78 347.30,170.00 348.08,169.39C348.86,168.79 350.53,168.04 351.79,167.73C353.05,167.42 355.45,167.56 357.12,168.03C359.87,168.82 360.30,168.62 361.82,165.80C362.75,164.10 364.78,161.20 366.35,159.35C367.92,157.51 369.78,156.00 370.48,156.00C371.18,156.00 372.28,155.37 372.92,154.60C373.84,153.49 373.43,152.70 370.93,150.74C367.79,148.29 367.79,148.29 371.98,144.13C376.18,139.98 376.18,139.98 379.23,143.24C382.28,146.50 382.28,146.50 379.44,147.00C377.89,147.28 376.70,147.84 376.81,148.25C376.91,148.66 377.00,149.45 377.00,150.00C377.00,150.55 377.59,151.00 378.31,151.00C379.03,151.00 380.62,149.65 381.84,148.00C383.06,146.35 384.64,145.00 385.36,145.00C386.07,145.00 387.63,146.04 388.83,147.31C390.02,148.59 391.00,149.88 391.00,150.20C391.00,150.51 390.10,151.00 389.00,151.29C387.90,151.58 387.00,152.50 387.00,153.35C387.00,154.19 387.47,155.17 388.04,155.53C388.62,155.88 389.75,155.62 390.57,154.94C391.38,154.27 392.19,153.89 392.35,154.11C392.52,154.32 393.88,156.15 395.38,158.17C396.88,160.18 400.22,162.83 402.80,164.04C407.36,166.19 407.42,166.29 405.02,167.18C403.15,167.88 402.88,168.31 403.90,168.94C404.65,169.40 408.20,169.69 411.79,169.59C417.31,169.43 418.74,169.75 421.06,171.70C422.56,172.97 425.18,176.16 426.86,178.79C428.55,181.41 430.57,186.03 431.35,189.03C432.76,194.50 432.76,194.50 442.63,194.22C448.06,194.07 466.59,193.57 483.82,193.11C504.33,192.56 515.51,191.89 516.24,191.16C517.05,190.35 517.05,188.76 516.26,185.30C515.53,182.09 515.50,179.94 516.18,178.67C516.92,177.28 517.97,176.92 520.23,177.25C521.92,177.49 527.61,176.91 532.90,175.94C538.18,174.98 549.02,173.01 557.00,171.58C564.98,170.14 573.45,168.25 575.83,167.37C580.17,165.77 580.17,165.77 583.70,169.14C585.64,170.99 588.97,174.85 591.12,177.71C593.26,180.58 595.51,184.02 596.12,185.36C597.02,187.35 596.75,188.97 594.61,194.31C592.91,198.57 592.00,202.75 592.00,206.33C592.00,211.13 591.57,212.33 588.50,216.00C586.57,218.30 584.99,220.93 584.99,221.84C584.98,222.76 584.99,272.53 585.00,332.46C585.02,402.78 585.38,441.78 586.01,442.41C586.56,442.96 587.00,444.50 587.00,445.84C587.00,447.51 584.64,450.75 579.50,456.13C575.38,460.45 572.00,464.43 572.00,464.98C572.00,465.62 584.31,466.07 606.25,466.24C640.50,466.50 640.50,466.50 640.82,468.77C641.00,470.02 639.71,475.64 637.97,481.27C636.22,486.90 633.78,493.30 632.55,495.50C631.32,497.70 630.49,500.22 630.70,501.11C631.00,502.32 632.86,502.87 638.30,503.36C642.26,503.71 654.78,504.29 666.12,504.65C680.95,505.13 688.54,504.96 693.12,504.06C696.63,503.37 700.06,502.35 700.75,501.78C701.44,501.22 702.00,500.37 702.00,499.91C702.00,499.44 698.96,499.07 695.25,499.09C691.54,499.11 681.52,498.83 673.00,498.48C664.48,498.13 657.16,497.51 656.74,497.11C656.32,496.71 657.08,493.71 658.42,490.44C660.85,484.50 660.85,484.50 669.43,484.82C674.34,485.01 678.00,484.74 678.00,484.20C678.00,483.68 676.31,482.98 674.25,482.64C672.19,482.30 668.85,482.02 666.83,482.01C664.82,482.00 662.96,481.44 662.71,480.75C662.46,480.06 662.90,477.93 663.68,476.02C664.86,473.10 665.19,452.03 665.71,347.45C666.32,222.38 666.32,222.38 663.66,216.75C662.20,213.66 661.00,210.31 661.00,209.31C661.00,208.32 660.07,205.05 658.93,202.05C657.79,199.05 655.54,195.10 653.93,193.27C652.32,191.43 651.00,188.80 651.00,187.42C651.00,185.67 651.91,184.39 654.00,183.20C655.65,182.27 657.26,180.71 657.57,179.75C657.88,178.79 659.04,177.51 660.14,176.92C661.97,175.95 662.05,176.04 661.04,177.92C660.43,179.07 659.41,180.00 658.76,180.00C657.97,180.00 657.93,180.33 658.62,181.02C659.31,181.71 663.30,181.53 671.06,180.45C677.34,179.57 682.69,178.64 682.96,178.37C683.23,178.11 682.78,177.47 681.97,176.96C681.16,176.45 676.45,175.98 671.50,175.92C662.50,175.80 662.50,175.80 668.43,173.89C671.69,172.83 676.86,171.58 679.92,171.10C682.97,170.62 686.38,170.58 687.49,171.00C688.59,171.43 693.42,175.54 698.20,180.14C703.75,185.46 707.17,189.57 707.61,191.46C708.14,193.65 707.72,195.46 706.02,198.46C704.75,200.68 701.75,206.23 699.35,210.79C695.00,219.08 695.00,219.08 695.00,343.40C695.00,434.06 695.31,469.19 696.16,473.11C696.80,476.08 697.28,480.03 697.22,481.90C697.16,483.85 698.38,487.78 700.06,491.12C701.68,494.32 703.00,497.56 703.00,498.31C703.00,499.06 704.11,500.18 705.46,500.80C706.81,501.42 708.85,503.74 709.98,505.96C711.53,509.00 712.64,510.00 714.46,510.00C715.79,510.00 725.12,510.69 735.18,511.54C745.25,512.39 753.83,513.43 754.26,513.86C754.69,514.29 754.91,526.53 754.77,541.07C754.50,567.50 754.50,567.50 751.30,567.81C749.53,567.98 739.63,566.74 729.30,565.05C718.96,563.36 708.92,561.75 707.00,561.47C705.08,561.20 695.85,560.34 686.50,559.57C677.15,558.79 661.52,557.36 651.76,556.37C637.57,554.94 633.77,554.83 632.77,555.83C631.77,556.83 631.78,557.24 632.81,557.88C633.52,558.32 640.04,559.90 647.30,561.39C654.56,562.88 664.44,565.02 669.25,566.13C674.06,567.25 678.00,568.64 678.00,569.21C678.00,569.92 672.65,570.03 661.12,569.53C650.09,569.06 644.02,569.16 643.61,569.82C643.24,570.43 648.44,572.09 656.74,574.01C664.31,575.76 674.55,578.23 679.50,579.51C684.45,580.79 693.98,583.43 700.68,585.37C707.38,587.32 719.05,590.10 726.61,591.54C736.68,593.46 740.94,593.89 742.54,593.16C743.75,592.61 746.77,591.86 749.25,591.49C751.82,591.10 754.02,591.22 754.35,591.76C754.68,592.28 754.99,616.74 755.05,646.11C755.12,679.68 754.78,701.17 754.13,704.00C753.56,706.48 752.39,710.49 751.53,712.93C750.67,715.37 748.82,718.86 747.43,720.68C744.90,724.00 744.90,724.00 737.20,719.85C732.97,717.57 725.67,713.58 721.00,710.98C716.33,708.39 708.45,704.12 703.50,701.50C698.55,698.88 689.45,693.63 683.28,689.82C677.11,686.01 671.80,682.48 671.49,681.98C671.17,681.47 675.10,682.56 680.21,684.41C685.32,686.25 691.41,688.08 693.75,688.47C697.26,689.05 698.00,688.90 698.00,687.59C698.00,686.24 699.56,686.00 708.25,685.98C718.50,685.97 718.50,685.97 715.25,683.10C713.46,681.53 712.00,679.93 712.00,679.57C712.00,679.20 717.20,678.97 723.55,679.07C729.90,679.16 735.29,679.04 735.53,678.80C735.77,678.57 733.94,677.10 731.47,675.53C729.00,673.97 727.19,672.48 727.45,672.21C727.72,671.95 731.97,671.79 736.91,671.86C741.85,671.93 746.13,671.60 746.43,671.12C746.72,670.64 744.38,669.11 741.23,667.71C738.08,666.31 729.65,663.35 722.50,661.13C715.35,658.91 699.60,654.52 687.50,651.37C668.43,646.42 664.23,645.65 656.00,645.61C648.36,645.57 645.37,646.01 640.75,647.85C636.08,649.71 635.00,650.58 635.00,652.45C635.00,653.71 634.72,656.16 634.37,657.88C633.87,660.39 632.85,661.41 629.27,663.00C626.81,664.09 623.08,665.44 620.98,666.01C618.87,666.57 613.86,667.46 609.83,667.97C605.19,668.56 598.93,668.54 592.78,667.92C587.43,667.37 579.55,666.04 575.28,664.94C571.00,663.85 563.36,660.94 558.30,658.48C553.23,656.01 548.65,654.00 548.10,654.00C547.56,654.00 543.15,655.32 538.31,656.93C533.46,658.54 526.00,660.57 521.73,661.44C517.46,662.31 509.47,663.49 503.98,664.05C497.25,664.74 490.82,664.75 484.23,664.07C478.86,663.52 470.51,661.92 465.68,660.53C460.86,659.13 454.29,656.66 451.09,655.04C447.89,653.43 444.04,650.65 442.55,648.87C439.92,645.76 439.84,645.28 440.16,635.84C440.48,626.54 440.65,625.90 443.39,623.27C446.10,620.68 446.18,620.66 444.64,622.97C443.74,624.33 443.00,626.78 443.00,628.41C443.00,630.14 444.56,633.77 446.75,637.15C449.70,641.69 451.46,643.30 455.00,644.71C458.81,646.23 462.65,646.50 480.00,646.50C491.27,646.50 502.20,646.14 504.28,645.70C506.36,645.26 507.83,644.54 507.56,644.10C507.29,643.65 502.97,642.98 497.97,642.61C492.97,642.23 484.30,640.99 478.69,639.86C473.09,638.72 465.03,636.47 460.79,634.84C455.80,632.93 452.19,630.82 450.54,628.87C449.14,627.21 448.00,625.31 448.00,624.65C448.00,623.99 448.65,622.51 449.45,621.37C450.87,619.35 450.79,619.31 445.70,619.69C442.84,619.90 436.23,620.49 431.00,621.01C425.77,621.52 413.43,622.47 403.57,623.11C392.79,623.81 375.66,624.05 360.57,623.70C335.99,623.14 335.27,623.18 323.75,625.79C317.29,627.25 312.00,628.84 312.00,629.32C312.00,629.80 313.35,631.46 315.00,633.00C317.97,635.77 318.00,635.92 317.96,646.15C317.93,653.95 317.49,657.29 316.20,659.71C315.26,661.48 312.91,664.09 310.99,665.51C309.07,666.93 303.68,669.25 299.01,670.68C291.71,672.90 288.69,673.26 277.51,673.25C268.93,673.23 260.76,672.55 253.50,671.23C247.45,670.13 239.95,668.26 236.83,667.07C233.72,665.89 230.00,664.00 228.58,662.89C226.05,660.89 226.00,660.61 226.00,648.28C226.00,635.72 226.00,635.72 220.25,636.33C217.09,636.67 210.45,637.97 205.50,639.22C196.50,641.50 196.50,641.50 196.22,652.21C195.94,662.68 195.87,662.95 193.10,664.93C191.54,666.04 185.15,669.44 178.88,672.49C170.97,676.35 165.67,678.26 161.50,678.78C158.20,679.19 152.00,679.20 147.72,678.79C143.44,678.38 135.91,676.70 130.98,675.05C126.06,673.40 120.24,670.86 118.05,669.41C115.86,667.96 113.78,665.87 113.43,664.77C113.08,663.66 113.36,657.66 114.05,651.44C114.74,645.21 115.67,639.54 116.10,638.84C116.54,638.13 117.12,637.79 117.41,638.08C117.69,638.36 118.36,643.26 118.90,648.96C119.64,656.77 120.32,659.75 121.69,661.04C122.68,661.99 126.65,664.00 130.49,665.51C134.34,667.02 138.79,668.31 140.38,668.38C143.27,668.50 143.27,668.50 143.64,658.50C143.85,653.00 144.19,648.01 144.41,647.41C144.64,646.80 146.17,646.52 147.87,646.77C149.55,647.01 153.24,646.66 156.07,645.98C159.62,645.13 160.79,644.48 159.86,643.89C159.11,643.42 157.09,643.02 155.36,643.02C153.64,643.01 148.24,641.85 143.36,640.44C138.49,639.03 132.11,636.67 129.19,635.20C123.88,632.52 123.88,632.52 119.99,634.76C117.85,635.99 115.29,637.00 114.30,637.01C113.31,637.01 105.53,638.78 97.00,640.94C88.47,643.09 76.33,646.67 70.00,648.89C63.67,651.12 53.78,654.34 48.00,656.05C42.23,657.76 37.05,659.54 36.49,660.01C35.93,660.47 32.89,661.82 29.74,663.00C26.58,664.18 24.00,665.51 24.00,665.95C24.00,666.39 27.94,667.16 32.75,667.65C41.50,668.55 41.50,668.55 35.00,671.99C28.50,675.43 28.50,675.43 35.50,676.26C39.35,676.72 45.20,677.43 48.50,677.84C54.50,678.58 54.50,678.58 51.00,680.47C47.50,682.36 47.50,682.36 50.00,683.08C51.38,683.48 55.54,683.85 59.25,683.90C63.02,683.96 66.00,684.44 66.00,685.00C66.00,685.55 65.55,686.00 65.00,686.00C64.45,686.00 64.00,686.51 64.00,687.14C64.00,687.93 65.60,688.08 69.25,687.62C72.14,687.26 76.07,686.68 78.00,686.33C81.13,685.77 81.35,685.87 80.16,687.31C79.43,688.19 74.26,691.69 68.66,695.08C63.07,698.47 53.44,704.45 47.25,708.37C41.06,712.29 36.00,715.87 36.00,716.32C36.00,716.78 38.59,717.02 41.75,716.87C44.91,716.71 51.44,716.68 56.25,716.79C61.06,716.91 65.00,717.37 65.00,717.83C65.00,718.29 63.88,719.26 62.50,720.00C61.12,720.74 60.00,721.65 60.00,722.03C60.00,722.41 63.04,723.03 66.75,723.40C70.46,723.78 75.19,724.35 77.25,724.67C79.31,724.99 81.00,725.63 81.00,726.09C81.00,726.55 79.34,728.05 77.32,729.43C74.34,731.46 73.96,732.05 75.32,732.57C76.25,732.93 78.10,732.94 79.44,732.60C80.78,732.27 82.16,732.44 82.50,733.00C82.84,733.55 83.88,734.00 84.81,733.99C85.74,733.99 88.18,733.52 90.23,732.95C92.28,732.38 99.48,728.32 106.23,723.93C117.33,716.71 118.02,716.39 113.50,720.55C110.75,723.08 100.29,731.46 90.25,739.17C80.21,746.88 71.70,753.68 71.34,754.27C70.90,754.97 71.32,755.08 72.59,754.59C73.64,754.17 78.35,753.34 83.06,752.74C87.77,752.14 92.50,751.98 93.56,752.39C95.38,753.10 95.34,753.23 93.00,754.49C91.62,755.23 90.62,756.19 90.76,756.63C90.90,757.06 94.95,757.32 99.76,757.21C108.06,757.01 108.39,757.08 106.25,758.62C105.01,759.51 104.00,760.58 104.00,760.98C104.00,761.39 107.87,761.96 112.60,762.25C117.32,762.55 121.66,763.26 122.23,763.83C122.94,764.54 122.10,765.35 119.51,766.43C116.44,767.71 111.23,768.00 91.03,768.00zM498.48,768.00C497.64,768.00 496.55,766.99 496.06,765.75C495.58,764.51 493.56,759.35 491.59,754.29C489.61,749.22 488.02,744.72 488.05,744.29C488.08,743.85 490.76,748.67 494.00,755.00C497.24,761.33 499.92,766.84 499.95,767.25C499.98,767.66 499.31,768.00 498.48,768.00zM426.74,760.83C426.54,761.75 425.82,759.12 425.14,755.00C424.47,750.88 423.49,745.61 422.96,743.31C422.43,741.00 422.00,738.11 422.00,736.89C422.00,735.67 422.19,734.85 422.41,735.08C422.64,735.31 423.79,740.82 424.97,747.33C426.15,753.83 426.95,759.90 426.74,760.83zM147.53,750.03C146.44,750.84 147.29,749.35 149.42,746.72C151.55,744.09 153.86,741.61 154.55,741.22C155.25,740.82 163.46,733.19 172.81,724.25C182.16,715.31 190.19,708.00 190.65,708.00C191.12,708.00 186.78,712.56 181.00,718.12C175.22,723.68 165.78,732.81 160.00,738.40C154.22,743.99 148.61,749.22 147.53,750.03zM661.98,736.96C661.70,736.98 657.11,733.71 651.79,729.69C646.47,725.68 638.04,718.84 633.06,714.50C628.08,710.16 624.00,706.44 624.00,706.23C624.00,706.03 625.46,706.89 627.25,708.13C629.04,709.38 634.60,713.45 639.61,717.18C644.62,720.90 651.82,726.87 655.61,730.43C659.40,734.00 662.27,736.93 661.98,736.96zM276.11,664.86C278.10,664.94 281.81,664.71 284.36,664.36C286.91,664.01 289.00,663.34 289.00,662.86C289.00,662.39 285.29,662.00 280.75,661.99C276.21,661.98 266.65,661.32 259.50,660.51C252.35,659.70 245.38,659.08 244.00,659.12C242.36,659.17 243.46,659.83 247.22,661.05C250.37,662.07 257.35,663.31 262.72,663.81C268.10,664.31 274.12,664.79 276.11,664.86zM290.23,655.53C290.64,654.97 290.98,651.94 290.98,648.82C291.00,643.14 291.00,643.14 296.75,641.53C299.91,640.64 303.75,639.42 305.28,638.82C306.81,638.22 307.86,637.53 307.61,637.27C307.36,637.02 303.43,637.76 298.89,638.91C294.34,640.06 290.30,641.52 289.90,642.15C289.39,642.98 285.42,643.14 275.85,642.71C267.50,642.34 259.60,641.36 254.76,640.10C250.50,638.99 244.20,636.89 240.76,635.43C237.32,633.96 233.38,632.71 232.00,632.63C230.43,632.55 229.50,633.03 229.50,633.94C229.50,634.73 231.55,636.44 234.05,637.72C236.55,639.01 244.50,641.59 251.72,643.46C258.93,645.33 266.33,647.67 268.17,648.65C270.00,649.63 275.55,651.81 280.50,653.50C286.39,655.51 289.75,656.21 290.23,655.53zM578.70,655.00C581.04,655.00 581.08,654.85 580.42,649.00C579.74,643.00 579.74,643.00 585.12,642.98C588.08,642.97 593.62,642.30 597.44,641.50C601.25,640.69 604.77,639.63 605.25,639.15C605.75,638.65 601.93,638.05 596.31,637.74C590.01,637.40 583.28,636.26 577.50,634.56C572.55,633.10 565.64,630.58 562.14,628.95C558.64,627.33 554.87,626.00 553.76,626.00C552.03,626.00 551.84,626.45 552.39,629.20C552.74,630.95 553.49,634.09 554.05,636.17C554.61,638.25 556.06,640.66 557.28,641.52C558.50,642.38 563.28,645.76 567.90,649.04C572.53,652.32 577.38,655.00 578.70,655.00zM284.06,637.80C290.08,637.51 290.41,637.37 291.32,634.50C291.91,632.67 292.23,600.79 292.14,553.04C292.06,509.88 291.76,473.83 291.47,472.92C291.13,471.84 289.37,471.05 286.39,470.64C283.82,470.29 280.98,470.48 279.87,471.07C277.93,472.11 277.91,473.34 278.34,552.31C278.58,596.42 278.88,632.95 279.00,633.50C279.13,634.05 278.90,635.31 278.49,636.30C277.81,637.94 278.31,638.08 284.06,637.80zM150.14,634.93C151.76,634.97 153.07,634.32 153.53,633.25C153.93,632.29 154.49,611.42 154.76,586.88C155.03,562.34 154.94,537.56 154.54,531.80C154.15,526.05 153.46,520.75 153.01,520.02C152.56,519.29 149.34,518.26 145.85,517.74C142.36,517.21 138.60,516.72 137.50,516.64C135.52,516.50 135.50,517.12 135.48,571.50C135.48,601.75 135.25,627.40 134.98,628.50C134.57,630.20 135.48,630.83 141.00,632.68C144.57,633.87 148.69,634.89 150.14,634.93zM481.69,633.89C482.90,633.95 484.15,633.57 484.47,633.05C484.79,632.53 484.17,631.63 483.09,631.05C482.01,630.47 480.21,630.00 479.08,630.00C477.95,630.00 472.81,628.65 467.66,627.00C462.51,625.35 457.55,624.00 456.65,624.00C455.74,624.00 455.00,624.62 455.00,625.39C455.00,626.15 456.46,627.45 458.25,628.27C460.04,629.10 462.62,630.13 464.00,630.57C465.38,631.00 469.43,631.90 473.00,632.57C476.57,633.23 480.49,633.83 481.69,633.89zM484.06,629.00C488.57,629.00 489.16,628.74 490.15,626.25C490.90,624.37 491.42,599.96 491.76,549.48C492.21,483.17 492.10,475.33 490.70,474.17C489.84,473.45 486.73,472.62 483.79,472.32C479.69,471.89 478.14,472.13 477.16,473.31C476.13,474.55 475.94,489.90 476.19,549.68C476.43,608.33 476.78,624.99 477.79,626.75C478.85,628.61 479.93,629.00 484.06,629.00zM589.13,628.92C593.20,628.98 595.13,628.55 596.12,627.36C597.24,626.01 597.48,614.63 597.49,563.94C597.50,529.97 597.27,501.94 597.00,501.67C596.72,501.39 595.37,500.90 594.00,500.57C592.62,500.25 590.83,500.42 590.00,500.96C588.69,501.81 588.51,509.85 588.61,564.05C588.72,626.16 588.72,626.16 586.61,625.60C585.45,625.28 580.57,624.07 575.77,622.90C570.79,621.69 565.92,621.05 564.45,621.42C563.02,621.78 562.03,622.62 562.25,623.29C562.47,623.95 567.34,625.48 573.07,626.67C578.81,627.87 586.03,628.88 589.13,628.92zM463.42,623.00C465.16,623.00 465.93,622.29 466.40,620.25C466.74,618.74 467.30,595.00 467.64,567.50C468.04,534.85 467.86,511.08 467.13,499.00C466.51,488.82 465.73,479.50 465.39,478.28C465.06,477.06 463.89,475.78 462.79,475.43C461.70,475.09 460.35,475.25 459.80,475.80C459.16,476.44 458.75,502.04 458.65,547.65C458.53,603.75 458.77,618.97 459.79,620.75C460.54,622.08 462.03,623.00 463.42,623.00zM579.18,617.99C579.55,617.99 580.51,617.34 581.32,616.54C582.47,615.39 582.93,610.05 583.52,591.29C583.93,578.21 584.04,552.91 583.77,535.08C583.31,505.19 583.13,502.57 581.44,501.33C580.44,500.60 578.37,500.00 576.84,500.00C575.19,500.00 573.74,500.70 573.24,501.75C572.78,502.71 572.33,525.33 572.23,552.00C572.13,578.67 572.38,603.86 572.78,607.97C573.42,614.59 573.79,615.59 576.00,616.71C577.38,617.40 578.81,617.98 579.18,617.99zM748.25,609.92C748.66,609.96 749.00,609.54 749.00,608.98C749.00,608.41 747.77,607.48 746.28,606.92C744.78,606.35 737.69,604.35 730.53,602.47C723.36,600.60 709.62,597.52 700.00,595.64C690.38,593.76 680.02,591.95 677.00,591.62C671.50,591.03 671.50,591.03 674.79,592.53C676.61,593.36 688.98,596.76 702.29,600.07C715.61,603.39 731.23,606.94 737.00,607.97C742.77,609.00 747.84,609.87 748.25,609.92zM45.50,598.62C49.90,598.38 58.21,596.99 63.97,595.52C69.73,594.06 75.13,592.41 75.97,591.87C77.01,591.20 75.43,591.08 71.00,591.51C67.42,591.85 59.55,593.19 53.50,594.48C47.45,595.77 41.38,597.32 40.00,597.93C37.98,598.83 39.05,598.96 45.50,598.62zM389.50,594.83C390.05,594.91 398.15,594.52 407.50,593.95C416.85,593.38 427.45,592.50 431.05,591.99C434.66,591.48 439.98,590.55 442.87,589.93C445.77,589.31 447.90,588.57 447.61,588.27C447.32,587.98 420.48,587.69 387.97,587.62C341.23,587.53 329.47,587.75 331.79,588.70C333.40,589.35 340.07,590.64 346.61,591.56C353.15,592.48 365.25,593.56 373.50,593.96C381.75,594.36 388.95,594.75 389.50,594.83zM258.92,593.91C263.00,593.96 266.08,593.75 265.78,593.44C265.47,593.14 260.78,592.23 255.36,591.42C249.94,590.61 242.23,589.06 238.24,587.98C234.25,586.89 230.76,586.00 230.49,586.00C230.22,586.00 230.00,586.44 230.00,586.97C230.00,587.51 231.33,588.64 232.95,589.48C234.58,590.31 239.41,591.64 243.70,592.41C247.99,593.19 254.84,593.86 258.92,593.91zM193.43,587.00C197.18,587.00 204.58,586.27 209.88,585.38C215.17,584.49 220.18,583.38 221.00,582.91C221.96,582.37 220.45,582.05 216.78,582.03C213.64,582.01 205.99,582.70 199.78,583.57C193.58,584.43 188.07,585.55 187.55,586.07C186.96,586.65 189.18,587.00 193.43,587.00zM253.60,585.95C257.70,586.00 257.70,586.00 258.31,577.25C258.65,572.44 259.44,550.73 260.07,529.00C260.75,505.42 260.87,485.87 260.36,480.50C259.50,471.50 259.50,471.50 256.16,471.18C254.02,470.98 252.12,471.48 250.91,472.58C249.86,473.53 249.00,474.92 249.00,475.65C249.00,476.39 248.57,477.00 248.05,477.00C247.53,477.00 246.52,475.76 245.79,474.25C244.88,472.33 243.33,471.21 240.66,470.55C238.11,469.92 236.29,469.96 235.17,470.66C233.65,471.62 233.45,476.66 233.00,525.61C232.72,555.25 232.81,579.90 233.18,580.38C233.56,580.87 237.39,582.31 241.68,583.58C245.98,584.85 251.35,585.92 253.60,585.95zM753.75,584.87C753.06,584.80 750.70,584.16 748.50,583.44C746.30,582.72 738.65,580.55 731.50,578.62C724.35,576.68 716.48,574.53 714.00,573.84C709.50,572.57 709.50,572.57 712.87,572.21C714.73,572.02 724.62,572.60 734.87,573.52C745.11,574.43 753.83,575.39 754.24,575.65C754.66,575.91 755.00,578.12 755.00,580.56C755.00,583.51 754.58,584.96 753.75,584.87zM190.21,569.00C193.71,569.00 201.87,568.31 208.33,567.46C214.80,566.61 221.24,565.48 222.65,564.94C224.78,564.13 225.01,563.71 223.99,562.48C223.29,561.65 221.09,561.00 218.93,561.00C216.82,561.00 209.93,561.68 203.61,562.51C197.29,563.34 190.44,564.57 188.39,565.26C186.33,565.94 184.47,567.06 184.24,567.75C183.94,568.66 185.56,569.00 190.21,569.00zM428.00,567.22C430.48,567.07 436.18,566.47 440.69,565.88C445.19,565.29 449.69,564.22 450.69,563.49C451.68,562.76 452.19,561.85 451.81,561.47C451.43,561.09 447.15,560.84 442.31,560.90C437.46,560.96 427.94,561.70 421.14,562.53C414.34,563.37 407.81,564.60 406.64,565.27C404.81,566.32 405.86,566.57 414.00,567.00C419.23,567.27 425.52,567.38 428.00,567.22zM564.99,564.61C566.43,564.55 567.61,563.82 567.79,562.89C567.98,561.89 567.03,560.88 565.30,560.22C563.76,559.64 561.34,558.91 559.91,558.60C558.44,558.28 556.51,558.63 555.45,559.41C553.89,560.55 553.79,561.04 554.86,562.33C555.57,563.19 557.58,564.07 559.32,564.30C561.07,564.53 563.62,564.67 564.99,564.61zM384.03,558.81C389.27,558.91 397.34,558.53 401.96,557.95C406.59,557.37 411.06,556.51 411.89,556.04C413.03,555.40 412.42,554.93 409.46,554.17C407.28,553.62 403.02,552.87 400.00,552.53C396.98,552.18 393.15,551.62 391.50,551.29C388.50,550.69 388.50,550.69 391.34,549.91C392.90,549.48 399.20,548.64 405.34,548.05C411.48,547.46 418.41,546.70 420.75,546.37C423.09,546.04 425.00,545.44 425.00,545.04C425.00,544.64 420.39,543.45 414.75,542.41C406.02,540.80 399.60,540.51 371.50,540.51C348.02,540.50 336.05,540.90 330.00,541.89C325.32,542.66 320.41,543.69 319.09,544.18C317.67,544.70 317.05,545.43 317.59,545.94C318.09,546.42 322.74,547.53 327.93,548.40C333.11,549.28 340.54,550.04 344.43,550.10C348.32,550.15 352.62,550.56 354.00,551.00C355.68,551.54 353.56,551.84 347.50,551.92C342.55,551.98 337.86,552.44 337.08,552.93C336.02,553.60 336.67,554.09 339.58,554.85C341.74,555.41 347.77,556.35 353.00,556.95C358.23,557.55 365.20,558.17 368.50,558.33C371.80,558.49 378.79,558.71 384.03,558.81zM642.31,547.61C646.06,547.42 649.52,546.88 650.00,546.39C650.48,545.90 651.83,541.79 653.00,537.25C654.17,532.71 654.99,527.78 654.82,526.29C654.56,524.08 653.84,523.43 651.00,522.84C649.08,522.44 643.79,521.80 639.25,521.42C631.00,520.72 631.00,520.72 631.00,533.39C631.00,545.59 631.08,546.10 633.25,547.00C634.49,547.52 638.57,547.79 642.31,547.61zM53.75,545.48C59.11,545.10 63.91,544.40 64.42,543.92C64.96,543.42 64.62,542.79 63.59,542.40C62.63,542.03 58.84,542.02 55.17,542.37C51.50,542.72 47.49,543.29 46.25,543.62C45.01,543.96 44.00,544.67 44.00,545.21C44.00,545.83 47.59,545.93 53.75,545.48zM197.37,530.94C199.09,530.91 205.60,530.52 211.82,530.07C218.05,529.62 223.61,528.79 224.17,528.23C224.88,527.52 224.46,526.94 222.85,526.39C221.56,525.95 214.76,525.63 207.73,525.68C199.17,525.75 194.48,526.19 193.47,527.02C192.33,527.97 192.25,528.59 193.11,529.63C193.73,530.38 195.65,530.97 197.37,530.94zM270.20,524.92C270.80,522.02 270.81,516.88 270.22,510.92C269.28,501.50 269.28,501.50 269.26,515.50C269.24,526.92 269.41,528.66 270.20,524.92zM318.64,524.55C323.51,524.15 329.30,523.52 331.50,523.15C335.45,522.48 335.50,522.41 335.80,517.77C336.04,514.07 336.68,512.61 338.76,510.97C341.35,508.94 341.43,508.94 342.12,510.80C342.52,511.88 344.18,512.99 345.92,513.33C347.62,513.67 356.99,514.49 366.75,515.14C380.96,516.10 387.59,516.08 400.00,515.03C408.52,514.31 418.33,513.52 421.79,513.27C425.86,512.98 428.60,513.25 429.54,514.04C430.34,514.70 431.00,516.06 431.00,517.06C431.00,518.06 431.54,519.22 432.20,519.63C432.87,520.04 437.48,520.95 442.45,521.65C447.43,522.35 452.29,522.95 453.25,522.96C454.87,523.00 455.00,521.16 455.00,498.04C455.00,473.07 455.00,473.07 450.70,467.80C447.25,463.57 445.61,462.38 442.45,461.82C440.28,461.43 432.56,461.09 425.31,461.06C415.78,461.02 411.90,461.35 411.34,462.25C410.92,462.94 410.66,472.73 410.78,484.00C410.98,502.85 411.16,504.72 413.03,507.25C415.06,510.00 415.06,510.00 397.78,510.00C388.28,509.99 373.31,509.53 364.53,508.97C355.74,508.41 348.16,507.56 347.67,507.07C347.16,506.56 347.65,505.72 348.85,505.08C349.98,504.47 351.38,502.29 351.95,500.24C352.52,498.18 352.99,489.50 352.99,480.94C353.00,469.99 352.63,464.92 351.75,463.81C350.76,462.56 347.46,462.12 335.75,461.65C321.00,461.06 321.00,461.06 317.45,464.18C315.50,465.89 313.15,468.69 312.24,470.40C310.85,472.99 310.52,477.73 310.18,499.39C309.78,525.28 309.78,525.28 318.64,524.55zM199.85,520.16C203.18,519.98 206.34,519.30 206.88,518.65C207.42,518.00 208.00,513.65 208.18,508.98C208.50,500.50 208.50,500.50 205.31,500.19C203.18,499.98 201.48,500.52 200.19,501.81C198.99,503.01 197.99,505.90 197.55,509.48C197.00,513.86 196.39,515.35 194.98,515.71C193.97,515.98 192.87,516.90 192.54,517.77C192.20,518.63 192.35,519.60 192.86,519.92C193.38,520.24 196.52,520.35 199.85,520.16zM49.00,518.89C54.78,518.93 65.12,518.53 72.00,518.00C78.88,517.48 86.30,516.73 88.50,516.34C92.50,515.63 92.50,515.63 89.50,514.93C87.85,514.55 80.65,514.18 73.50,514.12C65.88,514.05 57.19,514.61 52.50,515.46C48.10,516.27 43.15,517.35 41.50,517.88C39.17,518.61 40.86,518.84 49.00,518.89zM701.50,518.75C708.43,518.83 711.72,518.56 710.39,518.02C709.23,517.55 704.05,516.67 698.89,516.07C693.73,515.46 681.19,514.30 671.02,513.48C660.86,512.67 647.92,512.00 642.27,512.00C636.62,512.00 632.00,512.40 632.00,512.89C632.00,513.37 633.91,514.04 636.25,514.36C638.59,514.68 649.05,515.63 659.50,516.47C669.95,517.31 681.20,518.14 684.50,518.31C687.80,518.48 695.45,518.68 701.50,518.75zM141.25,508.89C145.18,508.98 146.00,508.69 146.00,507.22C146.00,506.24 145.30,504.44 144.44,503.22C143.04,501.22 142.04,501.00 134.41,501.00C127.62,501.00 125.82,501.31 125.33,502.58C125.00,503.45 125.35,504.76 126.11,505.49C126.88,506.23 129.53,507.27 132.00,507.81C134.47,508.35 138.64,508.83 141.25,508.89zM383.50,501.64C390.50,501.50 390.50,501.50 391.00,493.50C391.27,489.10 391.34,482.46 391.14,478.75C390.88,474.01 390.38,472.00 389.45,472.00C388.73,472.00 387.85,472.90 387.50,474.00C387.15,475.10 386.55,476.00 386.17,476.00C385.79,476.00 385.03,475.00 384.49,473.77C383.94,472.54 382.45,471.02 381.16,470.38C379.87,469.74 377.71,469.52 376.37,469.88C375.02,470.24 373.37,471.60 372.71,472.90C372.04,474.21 371.07,475.33 370.53,475.39C370.00,475.45 368.96,473.36 368.23,470.75C367.18,467.06 366.33,465.87 364.37,465.38C362.97,465.03 361.35,465.25 360.73,465.87C360.11,466.49 359.27,470.03 358.85,473.75C358.44,477.46 358.08,484.14 358.05,488.60C358.01,495.23 358.33,496.99 359.84,498.36C360.95,499.36 364.64,500.37 369.09,500.90C373.17,501.38 379.65,501.72 383.50,501.64zM142.50,496.63C143.91,496.54 144.60,495.67 144.82,493.69C145.00,492.14 144.61,490.23 143.95,489.44C143.03,488.33 139.92,488.00 130.35,488.00C119.97,488.00 117.84,488.26 117.33,489.58C117.00,490.45 117.42,491.85 118.26,492.69C119.23,493.66 123.61,494.69 130.15,495.49C135.84,496.19 141.40,496.70 142.50,496.63zM186.50,494.82C199.25,494.90 210.16,494.55 210.97,494.04C211.78,493.53 212.08,492.75 211.63,492.30C211.18,491.86 200.40,491.54 187.66,491.60C174.92,491.65 161.80,492.08 158.50,492.56C152.50,493.43 152.50,493.43 158.00,494.05C161.03,494.39 173.85,494.74 186.50,494.82zM585.64,491.90C593.49,491.98 595.91,491.68 596.32,490.60C596.62,489.83 596.33,488.46 595.67,487.56C594.66,486.18 592.64,485.98 582.49,486.22C571.36,486.48 570.50,486.64 570.50,488.45C570.50,489.69 571.42,490.67 573.00,491.11C574.38,491.49 580.06,491.85 585.64,491.90zM588.55,479.62C596.60,479.52 599.17,479.12 601.50,477.60C604.23,475.80 604.28,475.65 602.38,474.94C601.27,474.53 592.74,474.04 583.43,473.85C566.50,473.50 566.50,473.50 566.50,476.00C566.50,478.32 566.93,478.55 572.50,479.12C575.80,479.47 583.02,479.69 588.55,479.62zM675.06,476.00C679.43,476.00 683.00,475.62 683.00,475.14C683.00,474.67 680.15,474.02 676.66,473.70C673.17,473.37 669.35,473.36 668.17,473.67C666.99,473.97 666.27,474.63 666.57,475.11C666.87,475.60 670.69,476.00 675.06,476.00zM386.25,440.78C289.04,440.63 203.20,440.27 195.50,440.00C183.66,439.58 181.57,439.27 181.97,438.00C182.23,437.18 182.60,390.69 182.79,334.71C183.15,232.91 183.15,232.91 181.01,229.30C179.33,226.44 179.16,225.52 180.19,224.88C181.09,224.31 181.44,221.96 181.31,217.28C181.20,213.55 180.43,208.57 179.59,206.20C178.74,203.84 177.76,199.64 177.39,196.86C177.00,193.94 175.79,190.70 174.51,189.16C173.29,187.70 171.78,185.52 171.15,184.32C170.52,183.11 170.00,181.50 170.00,180.72C170.00,179.94 171.73,178.62 173.84,177.79C176.77,176.64 178.20,175.21 179.89,171.73C181.10,169.23 182.78,166.91 183.63,166.59C184.47,166.27 186.03,166.00 187.08,166.00C188.14,166.00 189.00,166.44 189.00,166.99C189.00,167.53 190.79,168.26 192.98,168.61C195.17,168.96 196.72,169.64 196.42,170.12C196.13,170.61 196.61,171.00 197.50,171.00C198.39,171.00 198.87,170.60 198.56,170.10C198.26,169.61 198.72,168.94 199.59,168.60C200.45,168.27 204.67,168.00 208.96,168.00C214.67,168.00 217.09,167.60 218.00,166.50C218.68,165.68 220.04,165.00 221.01,165.00C221.98,165.00 228.04,168.54 234.48,172.86C240.92,177.18 249.31,183.37 253.14,186.61C256.96,189.85 260.33,193.46 260.62,194.64C260.97,196.04 262.22,196.99 264.21,197.39C265.88,197.73 269.59,198.00 272.46,198.00C276.01,198.00 279.06,198.75 282.08,200.36C284.51,201.66 288.21,203.64 290.29,204.77C292.38,205.90 293.69,207.07 293.20,207.37C292.72,207.67 290.22,208.39 287.65,208.97C285.09,209.54 275.90,210.91 267.24,212.01C258.58,213.12 245.65,214.90 238.50,215.98C231.35,217.07 223.03,218.41 220.00,218.98C216.55,219.62 213.85,220.79 212.75,222.11C211.32,223.83 210.98,226.36 210.89,235.86C210.82,242.26 210.66,288.02 210.53,337.55C210.34,406.70 210.00,428.14 209.05,429.91C208.12,431.64 208.10,432.50 208.96,433.36C209.79,434.19 227.76,434.53 274.80,434.62C310.39,434.69 388.10,435.04 447.50,435.41C518.72,435.84 556.01,435.73 557.00,435.07C558.30,434.21 558.57,424.82 559.02,364.29C559.30,325.90 559.53,274.85 559.52,250.83C559.51,226.82 559.23,206.89 558.89,206.56C558.56,206.23 557.57,206.23 556.70,206.56C555.82,206.90 553.87,208.79 552.36,210.77C549.63,214.35 549.62,214.46 549.67,229.94C549.71,238.50 550.08,287.12 550.50,338.00C551.28,430.50 551.28,430.50 503.89,430.20C477.83,430.04 402.27,429.59 336.00,429.20C215.50,428.50 215.50,428.50 215.56,404.00C215.60,390.52 215.82,344.32 216.05,301.31C216.49,223.13 216.49,223.13 224.99,221.55C229.67,220.68 242.95,218.84 254.50,217.46C266.05,216.09 281.12,214.29 288.00,213.48C294.88,212.66 311.07,211.10 324.00,210.01C336.93,208.91 363.48,207.13 383.00,206.05C402.52,204.97 437.62,203.18 461.00,202.09C484.38,200.99 514.30,199.60 527.50,199.01C540.70,198.41 554.09,197.66 557.25,197.32C563.00,196.72 563.00,196.72 563.00,318.89C563.00,441.07 563.00,441.07 386.25,440.78zM195.21,437.98C195.61,437.99 196.40,437.12 196.98,436.04C197.69,434.71 198.02,399.10 198.02,325.02C198.01,215.95 198.01,215.95 200.26,214.98C201.49,214.45 208.57,212.92 216.00,211.59C223.43,210.25 238.05,208.19 248.50,207.01C258.95,205.82 269.07,204.53 271.00,204.14C273.08,203.72 274.50,202.83 274.50,201.96C274.50,200.93 273.13,200.41 269.86,200.20C267.30,200.03 251.10,201.96 233.86,204.47C216.61,206.98 200.71,209.46 198.53,209.96C196.34,210.47 194.03,211.61 193.39,212.48C192.61,213.54 191.98,223.65 191.47,242.79C191.06,258.58 190.96,308.57 191.25,353.87C191.69,421.81 192.02,436.40 193.14,437.11C193.89,437.58 194.82,437.98 195.21,437.98zM543.94,427.00C544.39,427.00 545.05,410.91 545.40,391.25C545.76,371.59 546.26,326.93 546.52,292.00C546.79,257.07 547.24,226.70 547.53,224.50C547.82,222.30 547.59,219.82 547.01,219.00C546.10,217.70 545.76,217.76 544.46,219.47C543.63,220.55 542.47,223.25 541.86,225.47C541.09,228.31 540.89,258.28 541.18,327.01C541.41,380.65 541.93,425.08 542.35,425.76C542.77,426.44 543.49,427.00 543.94,427.00zM392.50,417.57C532.50,417.50 532.50,417.50 532.76,323.62C533.01,229.73 533.01,229.73 473.76,230.30C441.16,230.62 407.07,231.35 398.00,231.94C388.93,232.53 365.07,234.14 345.00,235.52C324.93,236.90 300.10,238.72 289.84,239.56C279.58,240.41 263.91,241.91 255.03,242.91C246.15,243.90 238.35,245.25 237.69,245.91C236.79,246.81 236.50,267.54 236.50,331.80C236.50,416.50 236.50,416.50 244.50,417.07C248.90,417.38 315.50,417.61 392.50,417.57zM226.40,384.36C227.17,383.06 227.50,362.54 227.50,316.00C227.50,279.43 227.12,247.71 226.66,245.53C225.91,241.96 225.71,241.76 224.72,243.53C223.96,244.88 223.59,259.41 223.56,290.00C223.53,314.48 223.64,344.18 223.81,356.00C223.99,367.82 224.39,379.46 224.71,381.86C225.22,385.60 225.46,385.95 226.40,384.36zM204.15,379.50C204.54,376.75 205.45,356.05 206.18,333.50C206.91,310.95 207.41,283.08 207.31,271.56C207.20,259.80 206.60,248.50 205.94,245.77C205.27,242.97 204.30,241.07 203.64,241.28C203.01,241.49 202.13,245.00 201.68,249.08C201.23,253.16 201.10,283.95 201.40,317.50C201.69,351.05 202.27,379.85 202.68,381.50C203.39,384.33 203.48,384.21 204.15,379.50zM643.58,370.45C642.99,370.59 639.58,370.40 636.00,370.03C632.42,369.66 627.25,368.59 624.50,367.66C621.75,366.72 618.38,365.09 617.00,364.04C614.50,362.12 614.50,362.12 614.23,337.81C614.08,324.44 614.31,312.99 614.73,312.36C615.15,311.73 619.10,310.88 623.50,310.48C628.04,310.07 631.14,310.13 630.67,310.63C630.21,311.11 628.19,311.96 626.17,312.53C623.54,313.27 622.41,314.19 622.18,315.78C621.99,317.11 622.49,318.25 623.44,318.62C624.36,318.97 626.46,318.12 628.46,316.60C631.90,313.97 631.90,313.97 632.45,317.24C632.75,319.03 633.40,327.63 633.90,336.35C634.40,345.08 635.26,352.66 635.80,353.20C636.46,353.86 636.98,353.24 637.35,351.35C637.65,349.78 638.18,341.75 638.53,333.50C638.96,323.55 638.81,317.66 638.09,316.00C637.49,314.62 636.46,312.73 635.79,311.80C635.12,310.86 634.84,309.82 635.18,309.49C635.51,309.16 638.82,310.26 642.53,311.94C646.24,313.62 650.03,315.00 650.95,315.00C651.87,315.00 653.39,315.56 654.33,316.26C655.82,317.34 656.11,320.02 656.52,336.01C656.78,346.18 656.71,356.43 656.37,358.80C655.82,362.67 655.22,363.44 650.21,366.64C647.16,368.60 644.17,370.31 643.58,370.45zM133.00,369.63C128.88,369.78 124.07,369.53 122.33,369.09C120.59,368.65 117.21,367.29 114.83,366.07C112.45,364.85 109.94,363.12 109.25,362.24C108.33,361.05 108.00,354.35 108.00,336.93C108.00,319.20 108.31,312.99 109.25,312.21C109.94,311.65 114.93,310.66 120.34,310.01C125.75,309.37 130.47,309.14 130.84,309.50C131.20,309.87 130.62,310.80 129.56,311.58C128.49,312.36 125.76,313.00 123.50,313.00C121.24,313.00 118.56,313.60 117.55,314.34C115.77,315.64 115.78,315.73 117.67,317.09C118.75,317.87 119.95,319.34 120.33,320.36C120.98,322.11 121.17,322.12 123.26,320.60C124.49,319.70 126.08,318.70 126.79,318.36C127.50,318.03 128.38,318.05 128.74,318.40C129.09,318.76 129.93,326.13 130.58,334.78C131.24,343.42 131.83,350.70 131.89,350.95C131.95,351.20 132.53,350.87 133.19,350.21C134.00,349.40 134.52,342.60 134.82,329.01C135.15,313.65 135.55,309.00 136.53,309.00C137.24,309.00 140.69,310.29 144.20,311.87C147.71,313.44 151.36,315.50 152.29,316.44C153.77,317.91 153.98,320.31 153.88,334.32C153.82,343.22 153.48,353.43 153.13,357.00C152.50,363.50 152.50,363.50 146.50,366.44C141.76,368.76 138.92,369.43 133.00,369.63zM76.95,300.00C77.36,300.00 77.99,294.53 78.35,287.84C78.71,281.16 78.99,266.42 78.98,255.09C78.98,243.77 78.59,233.90 78.12,233.17C77.46,232.12 77.11,232.22 76.50,233.67C76.07,234.67 75.50,243.47 75.24,253.21C74.97,262.95 75.08,277.46 75.48,285.46C75.88,293.46 76.54,300.00 76.95,300.00zM676.14,281.50C676.49,274.35 676.79,260.85 676.82,251.50C676.84,242.15 676.52,233.62 676.10,232.55C675.45,230.89 675.23,231.10 674.67,233.92C674.30,235.75 674.00,245.90 674.00,256.47C674.00,267.04 674.34,279.92 674.75,285.10C675.50,294.50 675.50,294.50 676.14,281.50zM239.00,232.40C243.12,232.12 259.32,230.58 275.00,228.98C290.68,227.39 309.57,225.61 317.00,225.03C324.43,224.45 346.25,222.86 365.50,221.50C384.75,220.13 414.45,218.33 431.50,217.50C448.55,216.66 478.48,215.54 498.00,215.01C517.52,214.48 536.53,213.75 540.23,213.39C543.94,213.04 547.46,212.15 548.06,211.43C548.91,210.40 548.33,209.96 545.32,209.40C543.22,209.00 522.60,209.21 499.50,209.87C476.40,210.53 444.68,211.72 429.00,212.51C413.32,213.30 391.05,214.42 379.50,215.00C367.95,215.58 348.05,216.95 335.27,218.05C322.50,219.15 302.47,221.14 290.77,222.48C279.07,223.82 261.18,225.86 251.00,227.00C240.82,228.15 231.38,229.57 230.00,230.17C227.61,231.19 227.59,231.28 229.50,232.08C230.60,232.55 234.88,232.69 239.00,232.40zM667.17,207.62C668.91,207.27 673.43,206.69 677.22,206.34C681.76,205.92 683.77,205.37 683.11,204.71C682.57,204.17 679.51,203.67 676.31,203.61C673.12,203.55 669.04,204.12 667.25,204.87C665.46,205.63 664.00,206.69 664.00,207.25C664.00,207.84 665.29,207.99 667.17,207.62zM77.95,204.97C86.23,204.99 88.14,204.74 87.17,203.77C86.49,203.09 82.69,202.38 78.72,202.19C73.33,201.94 70.99,202.24 69.50,203.39C67.66,204.81 68.33,204.94 77.95,204.97zM213.25,193.94C214.21,193.97 215.00,193.34 215.00,192.52C215.00,191.71 213.78,190.25 212.29,189.27C210.07,187.81 207.37,187.50 197.04,187.50C188.66,187.50 183.75,187.93 182.25,188.79C181.01,189.49 180.00,190.47 180.00,190.96C180.00,191.44 185.96,191.79 193.25,191.73C201.23,191.66 207.50,192.06 209.00,192.74C210.38,193.36 212.29,193.90 213.25,193.94zM74.25,191.78C77.69,191.71 81.06,191.24 81.74,190.72C82.42,190.20 82.73,189.37 82.43,188.89C82.13,188.40 80.16,188.00 78.07,188.00C75.97,188.00 72.84,188.28 71.12,188.62C69.41,188.97 68.00,189.85 68.00,190.58C68.00,191.55 69.66,191.87 74.25,191.78zM416.09,184.31C416.70,183.70 417.03,182.40 416.84,181.41C416.65,180.42 415.01,178.74 413.19,177.68C410.64,176.19 409.19,175.95 406.89,176.62C404.18,177.42 404.03,177.68 405.27,179.37C406.46,180.99 406.93,181.06 408.77,179.91C410.60,178.77 411.17,178.85 412.94,180.45C414.07,181.47 415.00,183.01 415.00,183.85C415.00,184.97 415.30,185.10 416.09,184.31zM369.70,183.98C369.81,183.99 369.25,182.44 368.45,180.53C367.65,178.62 367.00,174.55 367.00,171.48C367.00,168.28 367.70,164.53 368.64,162.70C370.27,159.50 370.27,159.50 368.22,161.33C367.09,162.34 365.62,165.41 364.96,168.16C364.30,170.91 364.03,174.80 364.36,176.80C364.70,178.90 365.92,181.20 367.22,182.20C368.48,183.17 369.59,183.97 369.70,183.98zM546.00,182.46C555.08,182.17 565.55,181.66 569.28,181.32C573.55,180.94 575.93,180.30 575.70,179.60C575.50,178.97 572.17,178.37 567.92,178.19C563.84,178.01 555.54,178.35 549.48,178.93C543.42,179.52 536.44,180.66 533.98,181.48C529.75,182.89 530.42,182.94 546.00,182.46zM392.84,179.60C394.40,178.22 395.00,176.54 395.00,173.54C395.00,170.69 394.10,167.97 392.12,164.84C390.53,162.34 387.95,159.10 386.38,157.65C384.81,156.19 382.82,155.00 381.96,155.00C381.10,155.00 379.86,154.46 379.20,153.80C378.27,152.87 378.00,152.90 378.00,153.94C378.00,154.68 377.21,155.92 376.25,156.71C374.67,158.00 374.83,158.09 377.85,157.58C380.33,157.16 381.99,157.57 384.23,159.16C385.89,160.35 388.32,163.65 389.63,166.49C390.93,169.34 392.04,172.76 392.09,174.08C392.14,175.41 391.84,177.62 391.43,179.00C390.69,181.49 390.69,181.49 392.84,179.60zM198.95,177.57C213.88,177.63 216.04,177.44 215.78,176.10C215.60,175.14 213.77,174.23 210.99,173.71C208.52,173.25 202.00,173.09 196.50,173.37C191.00,173.64 185.24,174.34 183.69,174.93C182.14,175.52 181.09,176.33 181.35,176.75C181.61,177.16 189.53,177.53 198.95,177.57zM380.44,170.00C382.33,170.00 384.15,169.56 384.49,169.02C384.82,168.48 384.61,167.13 384.01,166.02C383.42,164.91 382.42,164.00 381.79,164.00C381.17,164.00 379.83,164.74 378.83,165.65C377.82,166.57 377.00,167.92 377.00,168.65C377.00,169.52 378.23,170.00 380.44,170.00z" />

</svg>