<?xml version="1.0" encoding="UTF-8" standalone="no"?>
<svg 
  version="1.1" 
  xmlns="http://www.w3.org/2000/svg" 
  xmlns:xlink="http://www.w3.org/1999/xlink" 
  xmlns:svg="http://www.w3.org/2000/svg"
  xmlns:rdf="http://www.w3.org/1999/02/22-rdf-syntax-ns#"
  xmlns:cc="http://creativecommons.org/ns#"
  xmlns:dc="http://purl.org/dc/elements/1.1/"
  viewBox="0 0 768 768"
  width="768"
  height="768"
>
<style>svg {background-color: white; }</style>"
<metadata id="metadata1">
Created by https://svgstud.io and licensed under CC-BY-SA 4.0 license. Please attribute https://svgstud.io
</metadata>
<metadata id="prompt">
a refined concert house
</metadata>
<metadata id="version">
7
</metadata>
<metadata id="metadata2">
<rdf:RDF>
<cc:Work
    rdf:about="">
    <cc:license
    rdf:resource="http://creativecommons.org/licenses/by-sa/4.0/" />
    <dc:creator>
        <cc:Agent>
            <dc:title>https://svgstud.io</dc:title>
        </cc:Agent>
    </dc:creator>
</cc:Work>
<cc:License
    rdf:about="http://creativecommons.org/licenses/by-sa/4.0/">
    <cc:permits
    rdf:resource="http://creativecommons.org/ns#Reproduction" />
    <cc:permits
    rdf:resource="http://creativecommons.org/ns#Distribution" />
    <cc:requires
    rdf:resource="http://creativecommons.org/ns#Notice" />
    <cc:requires
    rdf:resource="http://creativecommons.org/ns#Attribution" />
    <cc:permits
    rdf:resource="http://creativecommons.org/ns#DerivativeWorks" />
    <cc:requires
    rdf:resource="http://creativecommons.org/ns#ShareAlike" />
</cc:License>
</rdf:RDF>
</metadata>
<metadata id="uid">
057c96a65b61f763b805251ab87a8e995c26ac5c22c16fd498717cb009ca305a
</metadata>
<path stroke="none" fill="black" fill-rule="evenodd" d="M350.00,748.25C338.73,748.43 320.05,748.27 308.50,747.90C296.95,747.52 282.10,746.69 275.50,746.05C268.90,745.41 257.43,743.98 250.00,742.87C242.57,741.76 229.05,739.36 219.94,737.53C210.83,735.70 197.87,732.58 191.15,730.58C184.42,728.59 172.75,724.67 165.21,721.88C157.67,719.08 147.08,714.53 141.69,711.77C136.29,709.01 128.41,704.49 124.19,701.73C119.96,698.97 113.35,694.14 109.50,691.00C105.65,687.85 100.59,683.20 98.26,680.67C95.92,678.13 92.38,673.50 90.38,670.37C88.38,667.25 85.81,662.17 84.67,659.09C83.09,654.81 82.59,651.04 82.55,643.00C82.50,632.96 82.65,632.21 85.89,626.00C87.95,622.06 92.08,616.70 96.39,612.39C100.30,608.48 107.55,602.64 112.50,599.41C117.45,596.19 127.51,590.55 134.85,586.90C142.20,583.24 147.80,580.00 147.31,579.69C146.82,579.39 139.69,577.35 131.46,575.16C123.23,572.97 108.62,569.53 99.00,567.52C89.38,565.51 74.97,562.28 67.00,560.35C59.02,558.41 48.23,555.24 43.00,553.30C37.77,551.37 29.56,547.76 24.74,545.28C19.92,542.81 13.79,538.81 11.10,536.40C8.42,533.99 5.28,530.00 4.12,527.52C2.95,525.05 2.00,521.42 2.00,519.46C2.00,517.50 2.74,514.46 3.65,512.70C4.55,510.94 6.38,508.08 7.70,506.34C9.02,504.60 13.44,500.87 17.52,498.05C21.60,495.23 27.85,491.56 31.41,489.90C34.97,488.23 40.40,486.61 43.48,486.29C47.24,485.90 49.50,485.12 50.34,483.93C51.20,482.69 53.56,481.93 58.04,481.44C61.59,481.06 65.07,480.29 65.76,479.74C66.55,479.12 70.80,479.01 77.16,479.46C82.74,479.86 87.92,480.41 88.66,480.70C89.40,480.98 90.00,481.81 90.00,482.54C90.00,483.27 90.95,484.17 92.10,484.53C93.26,484.90 94.72,484.68 95.35,484.05C96.13,483.28 96.50,477.43 96.50,466.12C96.50,449.33 96.50,449.33 103.50,449.71C107.35,449.91 129.32,450.71 152.33,451.48C185.72,452.59 194.61,453.17 196.41,454.35C197.64,455.16 207.84,464.59 219.08,475.30C230.31,486.01 247.71,503.07 257.75,513.20C275.40,531.02 276.00,531.76 276.00,535.69C276.00,537.93 276.56,540.20 277.25,540.73C277.94,541.27 279.62,542.01 281.00,542.38C282.38,542.75 298.46,543.48 316.74,544.02C337.86,544.64 366.36,544.65 394.97,544.06C419.71,543.54 440.68,542.72 441.57,542.22C442.88,541.49 442.20,540.70 437.95,537.97C432.98,534.78 432.12,534.58 419.62,533.77C412.40,533.31 382.20,533.09 352.50,533.29C322.80,533.49 297.82,533.84 297.00,534.08C295.71,534.44 295.46,531.81 295.23,515.31C294.98,498.05 295.14,495.94 296.73,494.31C297.71,493.31 298.45,491.82 298.37,491.00C298.29,490.18 298.18,488.49 298.12,487.26C298.02,485.48 297.24,484.90 294.22,484.42C290.93,483.89 290.44,483.47 290.47,481.16C290.49,479.70 291.18,478.27 292.00,477.98C292.82,477.70 302.05,477.70 312.50,477.98C322.95,478.27 332.96,478.34 334.75,478.14C336.54,477.94 338.00,477.44 338.00,477.03C338.00,476.61 336.00,475.51 333.56,474.58C331.12,473.65 327.41,471.50 325.31,469.80C323.22,468.11 316.49,464.35 310.37,461.46C304.25,458.56 295.28,455.20 290.43,453.98C282.68,452.04 281.00,451.92 276.56,452.98C273.40,453.73 267.27,454.00 260.22,453.70C248.93,453.22 248.93,453.22 237.36,445.36C225.78,437.50 225.78,437.50 225.91,372.50C225.98,336.75 226.39,305.93 226.82,304.00C227.57,300.65 227.77,300.51 231.55,300.81C233.72,300.99 240.72,302.00 247.11,303.06C253.50,304.13 259.46,305.00 260.36,305.00C261.69,305.00 262.00,303.90 262.00,299.12C262.00,295.62 261.49,292.84 260.75,292.24C260.06,291.69 255.68,290.31 251.00,289.18C246.32,288.05 237.32,286.13 231.00,284.91C219.50,282.70 219.50,282.70 213.25,285.86C209.81,287.60 207.00,289.63 207.00,290.38C207.00,291.24 206.18,291.57 204.69,291.28C203.42,291.04 199.07,292.11 195.03,293.67C190.99,295.23 186.50,297.68 185.06,299.12C183.61,300.55 181.32,302.05 179.96,302.44C178.61,302.83 173.45,304.68 168.49,306.56C163.53,308.43 158.01,311.31 156.21,312.95C153.45,315.48 152.60,315.77 150.64,314.88C148.74,314.01 146.42,314.64 137.26,318.48C127.89,322.41 125.77,323.72 123.49,327.01C120.80,330.89 120.80,330.89 121.54,357.10C122.28,383.31 122.28,383.31 118.73,382.73C115.70,382.24 114.81,382.58 112.59,385.08C110.32,387.62 109.29,388.00 104.62,388.00C99.26,388.00 99.26,388.00 98.64,384.25C98.30,382.19 98.02,370.93 98.01,359.22C98.00,337.95 98.00,337.95 92.04,331.54C86.08,325.14 86.08,325.14 87.62,322.06C88.46,320.37 90.61,317.88 92.38,316.52C94.15,315.17 103.61,309.96 113.38,304.95C123.16,299.93 131.39,296.06 131.67,296.34C131.95,296.62 130.36,298.49 128.13,300.50C125.91,302.51 123.81,305.03 123.47,306.09C123.13,307.15 121.20,308.94 119.18,310.05C117.16,311.17 115.95,311.95 116.50,311.79C117.05,311.63 122.45,309.57 128.50,307.22C134.55,304.86 140.96,302.28 142.75,301.48C144.54,300.68 146.00,299.55 146.00,298.97C146.00,298.38 144.87,296.86 143.48,295.57C141.24,293.49 141.16,293.18 142.73,292.71C143.71,292.43 149.45,289.98 155.50,287.27C161.55,284.57 178.07,276.20 192.21,268.68C206.36,261.16 219.04,255.00 220.40,255.00C221.76,255.00 223.94,255.41 225.25,255.91C226.56,256.40 233.83,258.20 241.40,259.91C248.97,261.61 255.69,262.98 256.33,262.96C256.98,262.93 255.93,262.10 254.00,261.11C252.07,260.11 245.90,258.06 240.28,256.54C234.66,255.02 229.56,253.18 228.96,252.45C228.15,251.48 228.31,250.46 229.57,248.54C230.50,247.11 231.00,245.67 230.68,245.34C230.35,245.02 228.26,245.48 226.02,246.37C223.79,247.27 221.74,248.00 221.48,248.00C221.22,248.00 221.00,246.26 221.00,244.12C221.00,241.99 220.72,238.84 220.38,237.12C219.90,234.76 219.21,234.00 217.54,234.00C216.33,234.00 215.06,234.28 214.72,234.61C214.38,234.95 214.69,236.19 215.40,237.36C216.11,238.54 216.75,241.53 216.82,244.00C216.96,248.50 216.96,248.50 214.92,244.01C213.80,241.54 212.18,238.75 211.32,237.80C210.33,236.71 209.99,235.18 210.38,233.63C210.73,232.23 214.41,228.33 218.94,224.55C223.31,220.90 228.01,216.59 229.38,214.96C230.75,213.33 232.12,212.00 232.44,212.00C232.75,212.00 233.00,212.85 233.00,213.89C233.00,214.93 232.32,216.05 231.50,216.36C230.50,216.74 230.00,218.32 230.00,221.07C230.00,224.37 229.40,225.76 227.00,228.00C225.35,229.54 224.00,231.07 224.00,231.40C224.00,231.73 226.27,232.00 229.05,232.00C233.72,232.00 234.22,231.76 235.80,228.75C236.73,226.96 239.53,223.56 242.00,221.19C244.47,218.83 251.00,214.05 256.50,210.59C262.00,207.13 272.80,200.24 280.50,195.28C288.20,190.32 306.88,178.03 322.00,167.96C337.12,157.89 356.57,145.29 365.22,139.97C373.87,134.64 382.96,129.71 385.43,129.02C389.62,127.85 390.21,127.93 394.21,130.29C396.57,131.67 399.62,134.01 401.00,135.49C403.50,138.17 403.50,138.17 398.21,136.08C395.31,134.94 392.23,134.00 391.39,134.00C390.50,134.00 389.99,134.69 390.18,135.64C390.36,136.57 404.23,145.59 422.09,156.39C439.47,166.90 459.94,179.45 467.59,184.27C475.24,189.09 487.12,196.67 494.00,201.11C500.88,205.54 511.00,212.38 516.50,216.30C522.00,220.21 535.39,229.41 546.25,236.74C557.11,244.07 566.00,250.69 566.00,251.47C566.00,252.24 562.13,255.48 557.39,258.66C552.39,262.02 548.36,265.51 547.77,266.97C547.18,268.44 546.70,281.37 546.63,297.75C546.56,313.28 546.16,326.00 545.75,326.00C545.34,326.00 544.96,313.74 544.91,298.75C544.85,283.76 544.29,266.79 543.66,261.03C542.53,250.88 542.41,250.52 539.50,249.05C537.85,248.22 530.88,243.88 524.00,239.41C517.12,234.94 504.25,226.75 495.40,221.20C486.54,215.66 469.67,205.97 457.90,199.68C446.13,193.38 433.12,186.31 429.00,183.96C424.88,181.61 420.38,178.92 419.00,177.98C417.62,177.05 411.40,173.48 405.17,170.06C398.94,166.64 393.29,164.06 392.61,164.32C391.75,164.65 391.01,170.63 390.18,184.15C389.52,194.79 388.34,213.18 387.57,225.00C386.79,236.82 385.67,255.95 385.07,267.50C384.48,279.05 383.53,297.27 382.97,308.00C382.40,318.73 380.84,341.23 379.50,358.00C378.16,374.77 376.14,401.10 375.01,416.50C373.88,431.90 372.69,446.65 372.35,449.27C372.01,451.90 371.35,454.29 370.87,454.58C370.39,454.88 370.00,455.92 370.00,456.90C370.00,458.14 379.75,465.12 401.70,479.59C419.14,491.09 436.24,502.74 439.70,505.48C446.00,510.45 446.00,510.45 446.00,526.12C446.00,539.48 446.23,541.88 447.58,542.39C448.45,542.73 450.48,543.00 452.08,543.00C455.00,543.00 455.00,543.00 455.04,528.25C455.06,517.35 455.44,512.85 456.50,511.00C457.29,509.62 457.95,508.01 457.96,507.41C457.98,506.81 456.90,505.82 455.55,505.20C454.20,504.59 445.03,498.78 435.17,492.29C425.31,485.81 412.43,477.42 406.56,473.65C400.68,469.88 396.01,466.70 396.18,466.58C396.36,466.46 403.02,466.74 411.00,467.20C418.98,467.65 440.80,469.15 459.50,470.52C478.20,471.88 496.17,473.44 499.43,473.98C502.69,474.51 505.68,475.30 506.08,475.73C506.48,476.15 506.97,488.76 507.18,503.75C507.47,525.27 507.28,531.00 506.28,531.00C505.58,531.00 499.05,529.46 491.76,527.57C484.46,525.69 475.22,523.62 471.22,522.98C467.22,522.34 463.28,522.06 462.47,522.37C461.66,522.68 461.00,523.87 461.00,525.02C461.00,526.48 462.13,527.58 464.75,528.69C466.81,529.56 473.68,532.17 480.00,534.49C486.32,536.80 497.07,541.08 503.89,543.98C516.27,549.27 516.27,549.27 535.39,546.03C545.90,544.24 561.48,541.28 570.00,539.46C578.52,537.63 599.45,533.85 616.50,531.05C633.55,528.25 655.38,524.61 665.00,522.97C674.62,521.33 687.64,519.20 693.92,518.24C700.74,517.19 705.50,515.99 705.75,515.25C705.98,514.57 704.97,513.56 703.50,513.00C702.04,512.45 695.03,511.21 687.92,510.26C675.00,508.53 675.00,508.53 675.00,486.37C675.00,467.60 675.23,464.13 676.50,463.64C677.33,463.32 678.00,462.40 678.00,461.59C678.00,460.53 676.63,460.02 673.25,459.80C668.50,459.50 668.50,459.50 669.00,453.00C669.27,449.43 669.45,439.30 669.39,430.50C669.31,419.19 668.82,413.03 667.73,409.50C666.89,406.75 664.10,399.32 661.55,393.00C658.99,386.68 655.80,379.82 654.45,377.77C653.10,375.72 652.01,373.25 652.01,372.27C652.02,371.10 654.37,372.98 658.91,377.79C662.69,381.80 666.34,386.41 667.02,388.04C667.69,389.67 668.64,391.00 669.12,391.00C669.60,391.00 670.00,390.08 670.00,388.95C670.00,387.83 669.06,385.01 667.91,382.70C666.76,380.39 664.54,374.68 662.97,370.00C661.41,365.32 659.16,358.80 657.98,355.50C656.80,352.20 655.42,349.06 654.90,348.53C654.28,347.89 653.26,347.98 651.99,348.78C650.91,349.45 649.21,350.00 648.20,350.00C647.20,350.00 643.71,348.35 640.44,346.34C637.17,344.32 630.63,340.59 625.90,338.03C621.18,335.47 614.93,331.38 612.02,328.94C609.11,326.50 604.77,322.10 602.37,319.16C598.72,314.70 598.00,313.11 598.00,309.52C598.00,306.06 598.48,304.92 600.46,303.62C601.82,302.73 603.16,302.00 603.44,302.00C603.72,302.00 603.68,303.33 603.36,304.96C602.77,307.92 602.77,307.92 611.41,307.31C618.86,306.78 620.23,306.94 621.31,308.40C621.99,309.34 624.34,310.52 626.53,311.03C628.71,311.54 633.68,311.96 637.57,311.98C641.45,311.99 647.30,311.52 650.57,310.94C653.83,310.36 657.29,309.66 658.26,309.37C659.24,309.09 659.77,308.44 659.46,307.93C659.14,307.42 652.86,307.00 645.50,307.00C637.66,307.00 631.86,306.59 631.50,306.00C631.16,305.45 629.83,305.00 628.55,305.00C627.26,305.00 625.96,304.33 625.64,303.51C625.32,302.68 623.23,301.28 620.99,300.38C618.75,299.48 617.07,298.24 617.25,297.62C617.43,297.01 621.14,294.70 625.49,292.50C629.84,290.30 633.57,287.94 633.78,287.25C634.02,286.46 633.16,286.00 631.43,286.00C629.92,286.00 624.69,287.84 619.80,290.09C614.92,292.34 610.26,293.93 609.46,293.62C608.66,293.31 608.00,292.17 608.00,291.07C608.00,289.97 608.98,288.16 610.19,287.04C611.39,285.92 612.74,285.00 613.19,285.00C613.63,285.00 614.00,284.28 614.00,283.40C614.00,282.04 613.12,281.91 608.09,282.49C602.17,283.18 602.17,283.18 602.99,279.56C603.44,277.57 604.33,275.30 604.98,274.52C605.63,273.74 608.47,271.95 611.28,270.55C614.34,269.02 618.09,268.00 620.64,268.00C622.97,268.00 625.14,268.42 625.46,268.93C625.77,269.44 625.47,270.21 624.78,270.64C623.91,271.17 624.29,271.63 626.01,272.11C627.38,272.49 632.18,272.85 636.68,272.90C641.19,272.96 646.14,272.51 647.68,271.92C650.50,270.84 650.50,270.84 647.50,269.24C645.85,268.36 641.35,266.85 637.50,265.88C633.65,264.92 626.27,262.52 621.09,260.56C615.92,258.59 611.08,256.48 610.34,255.87C609.60,255.26 609.00,252.99 609.00,250.83C609.00,248.04 609.68,246.23 611.37,244.54C612.68,243.23 616.04,241.18 618.84,239.97C621.91,238.65 624.20,236.96 624.60,235.70C625.09,234.15 624.55,233.05 622.52,231.43C620.46,229.79 619.95,228.73 620.46,227.12C620.84,225.94 622.41,224.32 623.97,223.52C625.53,222.71 628.31,222.09 630.15,222.15C631.99,222.20 636.12,221.24 639.32,220.02C643.41,218.46 646.17,218.00 648.61,218.45C651.15,218.93 653.80,218.42 658.46,216.55C663.74,214.44 666.49,214.00 674.36,214.00C679.60,214.00 684.15,213.57 684.47,213.04C684.80,212.52 683.69,211.37 682.00,210.50C680.31,209.63 679.19,208.50 679.51,207.98C679.83,207.47 681.96,206.55 684.24,205.93C686.53,205.32 692.02,204.91 696.45,205.04C700.88,205.16 705.02,205.20 705.66,205.13C706.29,205.06 706.59,204.13 706.31,203.07C706.03,202.00 704.38,200.47 702.65,199.65C700.92,198.83 697.83,197.86 695.79,197.48C692.98,196.96 690.33,197.45 684.79,199.53C680.78,201.03 676.15,203.06 674.50,204.03C672.85,205.00 669.02,206.29 666.00,206.90C662.98,207.51 656.22,208.15 650.99,208.34C645.75,208.53 640.49,209.20 639.30,209.84C638.11,210.48 635.08,211.00 632.57,211.00C629.05,211.00 628.00,210.63 628.00,209.40C628.00,208.52 628.73,206.27 629.62,204.39C630.51,202.51 632.57,199.86 634.20,198.49C635.82,197.12 637.83,196.00 638.65,196.00C639.83,196.00 639.71,196.55 638.07,198.63C636.93,200.08 636.00,202.11 636.00,203.13C636.00,204.16 636.50,205.00 637.11,205.00C637.72,205.00 640.53,203.16 643.36,200.91C646.19,198.66 648.81,195.99 649.19,194.98C649.66,193.73 651.35,192.92 654.43,192.46C656.93,192.08 663.17,192.27 668.30,192.87C673.43,193.48 679.06,194.26 680.81,194.61C682.68,194.99 684.00,194.84 684.00,194.26C684.00,193.71 682.31,192.16 680.25,190.80C678.19,189.45 674.97,187.81 673.10,187.17C671.23,186.53 666.06,186.01 661.60,186.01C657.15,186.02 651.02,186.69 648.00,187.50C644.98,188.31 641.95,188.98 641.29,188.99C640.62,188.99 639.60,188.12 639.02,187.03C638.42,185.92 638.25,183.28 638.62,180.95C639.06,178.22 640.75,175.04 643.65,171.48C647.00,167.36 649.93,165.15 656.26,161.96C663.71,158.21 665.04,157.86 670.07,158.29C673.14,158.56 677.48,159.71 679.71,160.85C681.95,162.00 685.46,164.86 687.51,167.22C689.56,169.57 691.83,172.89 692.57,174.60C693.30,176.30 697.12,180.30 701.07,183.48C705.98,187.46 708.83,190.62 710.13,193.55C711.56,196.79 711.78,198.44 711.05,200.37C710.31,202.32 710.55,203.99 712.09,207.46C713.48,210.60 713.90,213.03 713.46,215.38C712.88,218.44 713.18,219.05 716.56,221.64C718.61,223.21 722.02,226.01 724.12,227.85C726.23,229.69 728.83,232.61 729.90,234.35C730.96,236.08 732.07,239.75 732.35,242.50C732.63,245.25 732.89,248.03 732.93,248.67C732.97,249.32 734.16,251.22 735.57,252.90C736.99,254.58 737.85,256.44 737.49,257.02C737.13,257.60 738.47,259.89 740.47,262.10C743.50,265.45 744.06,266.76 743.81,269.82C743.51,273.42 743.42,273.49 739.75,273.17C736.83,272.92 736.00,273.20 736.00,274.46C736.00,275.35 736.90,277.84 738.00,280.00C739.10,282.16 740.00,285.64 740.00,287.75C740.00,289.85 739.11,293.32 738.03,295.44C736.06,299.30 736.06,299.30 738.83,302.46C740.35,304.19 742.20,307.07 742.94,308.85C744.09,311.63 744.05,312.80 742.64,317.14C741.74,319.92 739.61,323.96 737.91,326.12C736.20,328.27 732.17,332.06 728.96,334.53C725.74,337.01 718.47,341.52 712.81,344.56C707.14,347.59 700.85,351.70 698.82,353.68C696.79,355.66 693.75,359.87 692.06,363.03C690.38,366.19 689.00,369.48 689.00,370.34C689.00,371.20 689.75,372.32 690.68,372.84C692.23,373.71 692.20,374.26 690.23,380.24C689.06,383.80 687.57,389.81 686.91,393.60C686.10,398.24 685.90,406.67 686.30,419.49C686.62,429.95 687.41,443.22 688.06,449.00C688.71,454.77 689.61,460.47 690.06,461.66C690.76,463.51 691.96,463.92 698.48,464.53C702.66,464.92 708.57,466.01 711.61,466.95C715.51,468.16 717.70,469.52 719.06,471.58C720.12,473.19 720.99,475.68 720.99,477.13C721.00,478.57 720.31,480.32 719.48,481.02C718.64,481.72 717.66,481.99 717.30,481.63C716.94,481.27 717.43,480.41 718.39,479.70C720.04,478.50 720.03,478.34 718.25,476.72C717.21,475.78 713.69,474.09 710.43,472.96C707.17,471.83 701.26,470.49 697.30,469.99C691.59,469.25 689.36,469.37 686.55,470.54C684.60,471.36 683.00,472.41 683.00,472.88C683.00,473.36 685.23,474.04 687.95,474.40C690.68,474.76 694.39,475.70 696.20,476.49C699.50,477.92 699.50,477.92 694.31,477.96C690.34,477.99 688.47,478.55 686.40,480.34C684.88,481.64 683.99,483.17 684.38,483.80C684.78,484.45 686.28,484.69 687.92,484.37C689.48,484.05 691.01,484.20 691.31,484.69C691.61,485.18 697.07,485.52 703.43,485.45C709.79,485.37 715.00,485.44 715.00,485.60C715.00,485.76 714.01,487.56 712.81,489.60C710.61,493.32 710.61,493.32 717.93,492.64C724.95,491.99 725.22,492.04 724.62,493.98C724.28,495.09 723.70,496.98 723.34,498.17C722.77,500.03 722.95,500.21 724.59,499.45C725.64,498.96 728.75,498.60 731.50,498.65C734.25,498.70 738.78,499.21 741.57,499.78C744.36,500.36 748.18,501.47 750.07,502.26C751.96,503.05 754.96,504.93 756.75,506.44C758.96,508.30 760.00,510.06 760.00,511.91C760.00,513.48 759.04,515.53 757.75,516.70C756.51,517.83 752.91,520.44 749.75,522.52C746.59,524.59 744.00,526.64 744.00,527.07C744.00,527.51 745.46,528.89 747.25,530.13C749.04,531.38 750.83,532.88 751.23,533.45C751.64,534.03 751.98,535.42 751.98,536.55C751.99,537.67 750.31,540.22 748.25,542.21C746.19,544.20 741.71,547.45 738.30,549.44C734.88,551.42 728.08,554.59 723.17,556.49C718.26,558.38 708.90,561.27 702.37,562.91C695.84,564.55 684.42,566.85 677.00,568.02C669.58,569.19 659.50,570.80 654.62,571.60C649.73,572.39 645.34,573.29 644.85,573.59C644.37,573.89 644.21,574.52 644.50,575.00C644.79,575.47 648.73,577.88 653.26,580.35C657.79,582.83 664.71,587.11 668.63,589.87C672.55,592.63 678.21,597.42 681.21,600.51C684.21,603.61 688.10,608.52 689.86,611.42C691.67,614.40 693.57,619.40 694.21,622.85C695.06,627.43 695.07,630.55 694.23,635.05C693.61,638.37 692.01,643.43 690.67,646.30C689.33,649.16 686.03,654.18 683.35,657.47C680.66,660.75 675.35,666.05 671.53,669.26C667.71,672.46 660.97,677.47 656.55,680.38C652.12,683.29 643.33,688.40 637.00,691.74C630.67,695.08 620.10,699.94 613.50,702.53C606.90,705.13 594.98,709.41 587.00,712.04C579.02,714.68 564.40,718.93 554.50,721.51C544.60,724.08 533.20,727.03 529.16,728.07C525.12,729.11 513.65,731.29 503.66,732.91C493.67,734.53 477.84,737.01 468.49,738.43C459.13,739.85 440.68,742.10 427.49,743.45C414.29,744.80 396.07,746.36 387.00,746.92C377.93,747.48 361.27,748.08 350.00,748.25zM360.00,733.38C371.82,733.17 390.73,732.31 402.00,731.47C413.27,730.63 431.44,728.81 442.38,727.43C453.31,726.06 472.21,723.39 484.38,721.52C496.54,719.65 512.12,716.93 519.00,715.49C525.88,714.04 540.50,710.61 551.50,707.86C562.50,705.11 577.12,701.04 584.00,698.81C590.88,696.59 602.12,692.58 609.00,689.90C615.88,687.23 626.84,682.34 633.37,679.03C639.90,675.73 649.13,670.45 653.87,667.30C658.62,664.15 666.57,657.51 671.54,652.54C676.69,647.39 681.80,641.18 683.43,638.10C685.47,634.25 686.43,630.77 686.77,625.96C687.18,620.19 686.88,618.41 684.61,613.45C682.83,609.58 679.72,605.51 675.15,601.09C670.69,596.78 663.86,591.87 655.41,586.90C648.31,582.72 637.10,576.80 630.50,573.73C623.90,570.67 613.77,566.27 608.00,563.96C602.23,561.65 591.65,557.76 584.50,555.33C577.35,552.90 569.57,550.53 567.22,550.08C564.25,549.50 560.59,549.74 555.24,550.87C551.00,551.77 547.52,552.94 547.51,553.48C547.51,554.02 558.75,558.34 572.50,563.08C586.25,567.82 602.13,573.57 607.78,575.85C613.43,578.14 621.76,581.86 626.28,584.13C630.80,586.40 637.79,590.52 641.80,593.29C645.82,596.06 651.07,600.51 653.47,603.18C655.87,605.85 658.88,610.17 660.15,612.77C661.75,616.06 662.43,619.18 662.38,623.00C662.33,626.82 661.52,630.04 659.74,633.55C658.33,636.32 655.12,640.88 652.60,643.68C650.09,646.47 643.98,651.54 639.03,654.93C634.08,658.32 625.19,663.50 619.26,666.46C613.34,669.41 604.90,673.26 600.50,675.01C596.10,676.77 588.90,679.48 584.50,681.03C580.10,682.58 570.88,685.50 564.00,687.51C557.12,689.52 545.08,692.70 537.22,694.58C529.37,696.46 517.00,699.10 509.72,700.44C502.45,701.78 487.27,704.23 476.00,705.87C464.73,707.52 448.52,709.57 440.00,710.43C431.48,711.29 417.52,712.47 409.00,713.03C400.48,713.60 380.23,714.34 364.00,714.67C345.96,715.03 326.68,714.82 314.35,714.11C303.27,713.47 286.64,712.05 277.40,710.96C268.16,709.87 253.83,707.83 245.55,706.43C237.27,705.03 225.08,702.60 218.46,701.02C211.84,699.44 198.69,695.60 189.23,692.49C179.46,689.27 166.51,684.09 159.26,680.49C152.24,677.01 144.26,672.56 141.53,670.60C138.80,668.64 133.96,664.49 130.77,661.36C127.59,658.24 123.45,653.37 121.58,650.56C119.71,647.74 117.41,643.07 116.46,640.17C115.31,636.65 114.94,633.44 115.35,630.45C115.69,628.00 116.93,624.08 118.10,621.75C119.28,619.41 121.81,615.57 123.73,613.20C125.65,610.84 130.43,606.64 134.36,603.88C138.29,601.11 145.10,596.89 149.50,594.50C153.90,592.10 165.82,586.35 176.00,581.71C186.18,577.08 201.25,570.58 209.50,567.26C217.75,563.95 231.25,559.12 239.50,556.52C247.75,553.92 257.99,550.20 262.25,548.26C266.51,546.31 270.00,544.28 270.00,543.74C270.00,543.16 267.84,542.94 264.75,543.22C261.84,543.47 252.81,546.19 244.50,549.30C236.25,552.39 221.40,557.82 211.50,561.37C201.60,564.92 188.32,569.93 182.00,572.51C175.68,575.09 164.43,579.90 157.00,583.19C149.57,586.49 141.03,590.55 138.00,592.21C134.97,593.88 126.70,598.67 119.60,602.87C112.51,607.07 104.31,612.67 101.38,615.33C97.98,618.40 94.91,622.47 92.91,626.53C90.12,632.20 89.81,633.67 90.16,639.71C90.41,643.99 91.37,648.17 92.75,651.00C93.96,653.48 97.10,658.06 99.73,661.20C102.35,664.33 107.65,669.51 111.50,672.70C115.35,675.89 121.65,680.57 125.50,683.10C129.35,685.62 135.88,689.53 140.00,691.77C144.12,694.01 152.39,697.91 158.37,700.45C164.35,702.99 177.77,707.74 188.20,711.01C198.64,714.28 212.42,718.07 218.84,719.42C225.25,720.77 235.90,722.79 242.50,723.91C249.10,725.02 259.68,726.60 266.00,727.42C272.32,728.24 288.30,729.82 301.50,730.95C314.70,732.08 328.43,733.17 332.00,733.38C335.57,733.59 348.18,733.59 360.00,733.38zM201.75,691.98C202.99,691.99 204.00,691.57 204.00,691.03C204.00,690.50 202.66,687.96 201.03,685.39C199.40,682.82 197.40,678.64 196.59,676.11C195.78,673.57 194.85,669.02 194.53,666.00C194.18,662.69 194.50,658.22 195.34,654.77C196.10,651.63 198.25,646.52 200.11,643.42C201.98,640.32 206.20,634.83 209.50,631.21C212.80,627.60 219.43,621.36 224.23,617.36C229.04,613.36 240.06,605.39 248.73,599.64C257.41,593.89 269.41,586.38 275.41,582.95C281.42,579.52 290.87,574.60 296.41,572.02C301.96,569.43 312.01,565.19 318.74,562.58C325.47,559.97 331.21,557.47 331.48,557.03C331.76,556.58 330.98,555.96 329.74,555.66C328.51,555.36 315.14,554.58 300.04,553.94C284.93,553.29 270.28,553.00 267.47,553.29C264.66,553.58 258.79,555.04 254.43,556.54C250.07,558.03 237.50,562.74 226.50,567.00C215.50,571.25 203.35,576.29 199.50,578.18C195.65,580.07 192.50,582.26 192.50,583.05C192.50,584.01 194.27,584.72 198.00,585.25C201.03,585.68 203.95,586.22 204.50,586.44C205.05,586.67 200.35,586.83 194.06,586.80C182.62,586.74 182.62,586.74 172.06,592.16C166.25,595.15 157.25,600.27 152.06,603.54C146.87,606.82 139.54,612.52 135.78,616.22C131.61,620.31 127.97,625.01 126.48,628.22C124.80,631.83 124.02,635.24 124.03,639.00C124.04,642.27 124.82,646.22 125.96,648.73C127.02,651.06 130.03,655.25 132.65,658.05C135.27,660.85 141.05,665.57 145.50,668.53C149.96,671.49 159.43,676.44 166.55,679.54C173.67,682.63 184.00,686.69 189.50,688.56C195.00,690.43 200.51,691.97 201.75,691.98zM644.00,542.61C649.77,542.25 661.70,540.60 670.50,538.94C679.30,537.28 691.23,534.79 697.00,533.42C702.77,532.04 712.13,529.51 717.79,527.79C725.58,525.42 728.01,524.28 727.78,523.10C727.59,522.09 725.39,521.08 721.56,520.23C715.75,518.94 715.60,518.96 713.57,521.39C712.11,523.13 709.73,524.20 705.50,525.02C702.20,525.66 689.38,528.40 677.00,531.12C664.62,533.84 650.23,537.22 645.00,538.62C639.77,540.02 635.05,541.63 634.50,542.21C633.81,542.94 636.71,543.06 644.00,542.61zM283.75,532.81C282.58,533.03 281.67,532.21 280.98,530.32C280.42,528.77 279.43,526.38 278.78,525.00C278.13,523.62 268.58,513.49 257.55,502.48C246.52,491.48 230.53,476.37 222.00,468.92C213.47,461.47 205.15,454.44 203.50,453.30C200.53,451.24 200.50,451.12 200.64,442.55C200.72,437.79 201.00,433.67 201.27,433.40C201.54,433.13 204.49,433.54 207.82,434.31C212.77,435.45 215.97,437.25 225.19,444.09C231.41,448.70 241.68,456.57 248.00,461.58C254.32,466.58 264.80,475.48 271.28,481.34C283.06,492.00 283.06,492.00 289.03,492.00C292.31,492.00 295.00,492.42 295.00,492.94C295.00,493.46 293.09,494.02 290.75,494.19C286.50,494.50 286.50,494.50 286.00,513.49C285.55,530.53 285.32,532.51 283.75,532.81zM530.26,528.93C527.38,529.35 524.80,529.46 524.51,529.18C524.23,528.90 524.00,516.61 524.00,501.87C524.00,476.40 524.10,475.02 525.93,474.04C527.00,473.47 530.26,473.00 533.18,473.00C536.11,473.01 547.95,472.28 559.50,471.40C577.47,470.02 580.72,469.52 582.00,467.95C583.22,466.45 585.45,466.00 594.00,465.55C599.77,465.24 618.04,464.74 634.59,464.43C664.69,463.87 664.69,463.87 665.29,486.19C665.62,498.46 665.55,508.84 665.14,509.26C664.72,509.67 655.64,511.12 644.94,512.46C634.25,513.81 611.10,517.15 593.50,519.88C575.90,522.62 555.65,525.60 548.50,526.51C541.35,527.43 533.14,528.52 530.26,528.93zM362.00,524.76C388.12,524.83 411.30,524.56 413.50,524.17C417.50,523.45 417.50,523.45 412.50,520.97C407.50,518.50 407.50,518.50 364.00,518.24C340.07,518.09 315.77,518.31 310.00,518.74C300.42,519.43 299.50,519.68 299.50,521.50C299.50,523.27 300.36,523.57 307.00,524.07C311.12,524.38 335.88,524.69 362.00,524.76zM423.77,512.00C423.94,510.62 424.57,508.52 425.17,507.32C425.77,506.12 426.00,504.43 425.66,503.57C425.33,502.71 424.37,502.00 423.53,502.00C422.51,502.00 422.00,502.96 422.00,504.88C422.00,506.46 422.33,509.27 422.73,511.12C423.37,514.13 423.49,514.22 423.77,512.00zM85.83,508.29C88.40,506.33 92.30,503.93 94.50,502.96C96.70,501.99 102.33,499.38 107.00,497.16C115.50,493.11 115.50,493.11 111.78,491.56C109.74,490.70 106.03,490.00 103.54,490.00C101.05,490.00 96.27,489.05 92.93,487.90C88.61,486.40 85.65,485.97 82.68,486.42C79.54,486.89 77.51,486.54 74.54,485.02C72.36,483.91 69.15,483.00 67.41,483.00C65.67,483.00 63.70,483.66 63.04,484.46C62.37,485.26 62.12,486.38 62.47,486.96C62.83,487.53 64.41,488.00 65.99,488.00C67.57,488.00 69.57,488.71 70.44,489.58C71.31,490.45 71.72,491.65 71.35,492.24C70.88,493.00 72.90,493.13 78.09,492.69C83.16,492.27 86.29,492.46 88.00,493.31C89.38,494.00 90.50,495.39 90.50,496.41C90.50,497.49 89.08,499.02 87.09,500.09C84.64,501.41 82.51,501.76 79.49,501.34C75.98,500.86 75.19,501.07 74.68,502.63C74.35,503.66 73.33,505.51 72.41,506.75C70.76,509.00 70.76,509.00 75.41,509.00C78.52,509.00 80.24,509.47 80.61,510.43C81.03,511.53 82.25,511.03 85.83,508.29zM539.18,511.98C544.31,511.97 554.80,511.31 562.50,510.53C570.20,509.74 585.73,507.91 597.00,506.47C608.55,504.99 625.49,503.60 635.81,503.28C646.31,502.95 653.74,502.34 653.24,501.84C652.75,501.35 648.56,500.24 643.93,499.36C637.82,498.19 632.34,497.90 624.00,498.30C617.67,498.60 596.08,500.45 576.00,502.41C555.92,504.37 537.48,506.32 535.00,506.74C531.38,507.35 530.44,507.94 530.18,509.75C529.87,511.95 530.08,512.00 539.18,511.98zM335.59,510.84C352.69,510.93 373.50,510.70 381.84,510.34C390.18,509.98 397.00,509.32 397.00,508.87C397.00,508.42 395.54,507.25 393.75,506.28C390.86,504.70 386.97,504.47 359.00,504.23C341.68,504.08 320.98,504.31 313.00,504.73C299.13,505.47 298.49,505.60 298.19,507.68C297.93,509.49 298.45,509.94 301.19,510.27C303.01,510.50 318.49,510.75 335.59,510.84zM120.66,509.00C122.43,509.00 124.14,508.59 124.45,508.08C124.76,507.58 123.62,506.86 121.90,506.48C119.09,505.86 118.85,505.51 119.38,502.86C119.80,500.73 119.53,499.76 118.41,499.33C117.55,499.00 114.29,499.53 111.17,500.51C108.05,501.49 103.94,502.84 102.04,503.52C100.14,504.19 98.42,505.25 98.21,505.87C98.00,506.51 98.92,507.00 100.34,507.00C101.72,507.00 105.15,506.47 107.96,505.82C112.73,504.72 113.23,504.79 115.26,506.82C116.60,508.16 118.69,509.00 120.66,509.00zM273.15,504.80C273.60,504.08 273.97,501.70 273.98,499.50C273.98,497.30 273.53,493.86 272.97,491.85C272.42,489.84 271.26,487.93 270.41,487.60C269.06,487.08 268.95,488.05 269.56,495.26C269.94,499.79 270.72,504.08 271.29,504.80C272.14,505.86 272.47,505.86 273.15,504.80zM190.80,503.96C190.96,503.98 192.44,503.31 194.08,502.46C195.72,501.61 196.80,500.49 196.48,499.96C196.15,499.44 195.09,498.58 194.12,498.06C192.83,497.38 191.41,497.68 188.97,499.16C185.60,501.21 185.60,501.21 188.05,502.57C189.40,503.32 190.63,503.95 190.80,503.96zM56.61,500.00C57.56,500.00 61.19,499.50 64.67,498.90C68.74,498.19 71.00,497.32 71.00,496.46C71.00,495.72 70.59,494.86 70.08,494.55C69.58,494.24 67.89,494.47 66.33,495.06C64.78,495.66 61.14,496.14 58.26,496.14C55.39,496.14 52.77,496.56 52.46,497.07C52.14,497.58 52.84,498.00 54.00,498.00C55.16,498.00 55.84,498.45 55.50,499.00C55.16,499.55 55.66,500.00 56.61,500.00zM166.91,498.43C171.55,497.91 173.80,497.10 175.55,495.36C176.85,494.06 178.35,493.00 178.89,493.00C179.43,493.00 181.05,492.55 182.50,492.00C185.13,491.00 185.13,491.00 183.00,488.00C181.28,485.59 180.14,485.00 177.18,485.02C175.16,485.02 172.83,485.45 172.01,485.97C170.82,486.72 170.77,487.17 171.76,488.16C172.44,488.84 173.00,489.88 173.00,490.46C173.00,491.05 170.76,492.59 168.01,493.90C165.27,495.20 162.49,496.91 161.83,497.70C160.81,498.94 161.52,499.04 166.91,498.43zM350.00,496.47C367.23,496.44 377.16,496.05 378.40,495.34C380.11,494.36 379.91,494.12 376.40,492.88C373.53,491.86 366.56,491.50 350.00,491.51C337.62,491.51 321.74,491.89 314.70,492.36C305.84,492.95 302.02,493.56 302.28,494.35C302.52,495.07 306.54,495.69 313.08,496.00C318.81,496.27 335.43,496.48 350.00,496.47zM260.10,495.44C260.60,495.13 261.00,491.59 261.00,487.56C261.00,482.23 260.59,479.90 259.48,478.98C258.64,478.28 257.69,477.98 257.36,478.30C257.04,478.62 257.32,482.74 257.99,487.44C258.66,492.14 259.61,495.74 260.10,495.44zM547.00,495.89C553.33,495.94 565.02,495.53 573.00,494.97C580.98,494.42 594.53,493.07 603.11,491.98C611.70,490.89 620.20,490.29 622.00,490.65C624.55,491.16 625.17,491.00 624.80,489.90C624.53,489.07 622.27,488.24 619.27,487.87C616.48,487.53 613.77,486.97 613.23,486.64C612.70,486.32 608.94,486.68 604.88,487.45C600.82,488.22 585.12,490.03 570.00,491.47C554.88,492.90 540.92,494.46 539.00,494.94C536.38,495.58 538.41,495.82 547.00,495.89zM151.03,490.97C151.32,490.99 152.51,490.33 153.68,489.51C154.84,488.70 158.43,487.30 161.65,486.41C164.87,485.53 168.51,484.57 169.75,484.28C170.99,484.00 172.00,483.52 172.00,483.21C172.00,482.91 171.21,481.79 170.25,480.72C168.81,479.14 168.50,476.88 168.50,468.14C168.50,457.50 168.50,457.50 161.59,457.20C156.79,456.99 154.44,457.29 153.89,458.18C153.46,458.88 153.37,461.49 153.70,463.98C154.02,466.46 155.04,469.62 155.94,471.00C156.85,472.38 158.16,474.81 158.85,476.40C159.53,478.00 159.74,479.64 159.30,480.05C158.86,480.46 156.62,481.10 154.33,481.47C150.69,482.06 150.00,481.87 148.99,479.99C148.13,478.38 147.24,477.97 145.49,478.41C143.73,478.86 142.63,478.34 141.05,476.34C139.40,474.24 138.17,473.71 135.23,473.82C133.18,473.90 130.71,473.72 129.75,473.42C128.28,472.95 128.00,471.61 128.00,465.00C128.00,459.10 127.60,456.74 126.38,455.53C125.19,454.33 123.29,453.99 119.13,454.20C113.50,454.50 113.50,454.50 113.21,464.76C112.93,475.00 112.94,475.02 115.53,476.01C116.96,476.56 119.56,477.01 121.32,477.01C123.07,477.02 126.46,478.14 128.85,479.51C131.25,480.88 134.44,482.00 135.95,482.00C137.46,482.00 140.09,481.51 141.80,480.92C143.67,480.27 145.52,480.19 146.48,480.73C147.79,481.46 147.41,482.05 144.30,484.06C142.22,485.40 140.39,487.20 140.23,488.05C139.99,489.27 140.67,489.52 143.38,489.20C145.27,488.98 147.65,489.28 148.66,489.87C149.67,490.46 150.74,490.95 151.03,490.97zM323.70,486.79C338.75,486.59 346.27,486.13 347.05,485.35C347.92,484.48 347.64,484.02 345.92,483.47C344.66,483.07 334.38,483.06 323.07,483.43C311.75,483.81 301.65,484.37 300.62,484.67C299.10,485.11 299.00,485.40 300.12,486.15C300.90,486.67 311.15,486.95 323.70,486.79zM547.04,486.60C555.31,486.21 568.16,485.26 575.60,484.47C583.03,483.69 589.59,482.76 590.16,482.40C590.85,481.97 590.75,481.44 589.86,480.85C589.11,480.35 583.10,480.21 576.50,480.53C569.90,480.85 557.98,481.79 550.00,482.62C542.02,483.45 534.71,484.35 533.75,484.63C532.79,484.91 532.00,485.62 532.00,486.22C532.00,486.97 536.50,487.09 547.04,486.60zM247.80,478.08C247.97,474.55 247.58,470.39 246.93,468.83C246.29,467.27 245.36,466.00 244.87,466.00C244.38,466.00 244.25,468.59 244.58,471.75C244.91,474.91 245.70,479.07 246.34,481.00C247.49,484.46 247.50,484.44 247.80,478.08zM649.98,483.00C650.50,483.00 650.43,481.59 649.82,479.75C649.23,477.96 648.04,475.94 647.18,475.25C646.32,474.56 644.80,474.00 643.81,474.00C642.81,474.00 642.00,474.63 642.00,475.40C642.00,476.16 643.59,478.19 645.53,479.90C647.48,481.60 649.48,483.00 649.98,483.00zM365.33,480.88C369.59,480.97 371.06,480.66 370.75,479.75C370.48,478.91 367.55,478.40 361.93,478.21C356.60,478.02 353.88,478.26 354.51,478.86C355.05,479.38 356.40,480.02 357.50,480.29C358.60,480.55 362.12,480.82 365.33,480.88zM380.22,481.00C380.71,481.00 380.97,478.90 380.80,476.33C380.63,473.72 379.95,471.47 379.25,471.24C378.38,470.96 378.00,472.16 378.00,475.25C378.00,477.68 378.30,479.97 378.67,480.33C379.03,480.70 379.73,481.00 380.22,481.00zM77.00,473.35C75.62,473.64 70.34,473.21 65.25,472.41C60.16,471.60 54.84,470.51 53.44,469.98C52.03,469.44 51.14,468.58 51.46,468.07C51.77,467.56 54.50,466.62 57.51,466.00C60.89,465.30 66.15,465.13 71.24,465.56C75.78,465.94 80.06,466.70 80.74,467.24C81.60,467.93 82.16,467.73 82.60,466.59C82.95,465.69 83.04,462.03 82.82,458.46C82.51,453.71 81.88,451.45 80.45,450.06C79.30,448.94 73.16,446.78 65.51,444.80C55.74,442.27 52.43,441.01 52.19,439.73C51.97,438.63 53.15,437.25 55.49,435.87C57.49,434.69 58.76,433.39 58.31,432.99C57.87,432.58 55.23,431.51 52.45,430.61C49.68,429.71 46.37,428.25 45.11,427.36C43.36,426.14 42.93,425.10 43.33,423.09C43.78,420.83 43.32,420.15 40.18,418.47C37.83,417.21 36.50,415.78 36.50,414.50C36.50,413.06 37.27,412.41 39.25,412.18C40.76,412.01 42.00,411.44 42.00,410.92C42.00,410.40 41.44,409.05 40.75,407.92C39.66,406.13 39.85,405.57 42.30,403.44C43.84,402.11 46.31,400.71 47.80,400.35C49.28,399.98 51.55,399.00 52.83,398.17C54.41,397.15 55.02,395.98 54.71,394.58C54.46,393.44 53.93,391.71 53.52,390.74C52.94,389.37 53.56,388.67 56.36,387.49C58.33,386.67 61.64,386.00 63.72,386.01C65.80,386.01 69.75,387.13 72.50,388.48C75.25,389.83 78.11,390.95 78.86,390.97C79.81,390.99 80.09,391.93 79.79,394.00C79.54,395.65 79.73,397.00 80.21,397.00C80.68,397.00 81.97,395.47 83.07,393.60C84.20,391.69 86.21,389.91 87.64,389.55C89.05,389.20 91.78,389.43 93.72,390.07C97.04,391.17 97.21,391.43 96.74,394.92C96.24,398.62 96.24,398.62 105.87,398.81C111.17,398.91 117.97,399.40 121.00,399.89C124.03,400.39 126.85,400.58 127.27,400.33C127.69,400.07 127.06,398.49 125.88,396.83C123.72,393.79 123.72,393.79 116.24,394.49C110.20,395.06 108.86,394.93 109.22,393.85C109.55,392.87 112.13,392.45 118.59,392.32C123.49,392.22 129.33,391.84 131.56,391.48C134.63,390.99 135.93,391.21 136.93,392.41C137.65,393.29 139.20,394.01 140.37,394.02C141.54,394.02 143.10,394.41 143.83,394.88C144.86,395.53 144.58,396.19 142.58,397.76C141.16,398.87 140.00,400.29 140.00,400.89C140.00,401.57 142.23,402.01 145.75,402.02C149.21,402.04 153.16,402.80 155.67,403.94C157.97,404.98 160.59,406.98 161.51,408.37C162.42,409.77 162.88,411.38 162.53,411.96C162.17,412.53 161.04,413.00 160.00,413.00C158.96,413.00 157.87,413.40 157.56,413.90C157.26,414.39 157.72,415.06 158.58,415.39C159.95,415.92 159.88,416.33 158.10,418.60C156.58,420.53 156.29,421.68 157.00,423.00C157.66,424.23 157.57,425.11 156.72,425.81C156.04,426.38 154.14,427.14 152.49,427.51C150.85,427.88 148.69,428.41 147.69,428.68C146.70,428.95 145.47,430.27 144.96,431.61C144.45,432.96 143.01,434.46 141.76,434.96C140.12,435.62 139.96,435.89 141.20,435.94C142.14,435.97 143.34,436.79 143.88,437.75C144.74,439.29 146.91,439.54 161.93,439.82C179.00,440.13 179.00,440.13 179.06,420.82C179.09,410.19 179.48,393.85 179.92,384.50C180.51,372.26 180.43,367.28 179.62,366.71C179.00,366.27 174.79,366.20 170.25,366.55C162.00,367.18 162.00,367.18 162.00,348.16C162.00,332.26 162.26,328.89 163.56,327.58C164.42,326.72 167.46,325.36 170.31,324.56C173.17,323.75 176.85,322.96 178.50,322.80C181.18,322.53 181.56,322.07 182.03,318.50C182.43,315.51 182.72,315.01 183.20,316.50C183.54,317.60 183.98,347.52 184.16,383.00C184.50,447.50 184.50,447.50 160.50,447.00C147.30,446.73 127.86,446.50 117.30,446.50C103.27,446.50 97.76,446.84 96.85,447.75C96.16,448.44 94.79,449.00 93.80,449.00C92.81,449.00 91.10,449.90 90.00,451.00C88.25,452.75 88.00,454.33 88.00,463.57C88.00,474.09 87.99,474.13 85.75,473.37C84.51,472.94 82.60,472.65 81.50,472.72C80.40,472.78 78.38,473.07 77.00,473.35zM294.00,473.87C287.44,473.95 285.81,473.59 281.00,470.94C277.98,469.27 274.82,467.20 274.00,466.33C272.64,464.90 272.88,464.81 276.50,465.30C278.70,465.59 286.57,466.58 294.00,467.49C301.43,468.40 308.99,469.37 310.81,469.63C312.78,469.92 313.97,470.60 313.74,471.31C313.52,471.96 310.68,472.79 307.42,473.14C304.16,473.49 298.12,473.82 294.00,473.87zM357.32,469.87C369.99,469.99 371.12,469.85 370.81,468.25C370.50,466.66 368.53,466.48 349.02,466.23C334.70,466.05 327.89,466.29 328.56,466.96C329.11,467.51 332.70,468.36 336.53,468.85C340.36,469.35 349.72,469.80 357.32,469.87zM515.17,468.81C513.70,468.71 509.91,468.46 506.75,468.26C503.59,468.06 501.00,467.58 501.00,467.19C501.00,466.80 505.50,466.42 511.00,466.35C516.50,466.27 521.00,466.56 521.00,467.00C521.00,467.43 520.29,468.06 519.42,468.39C518.55,468.73 516.64,468.91 515.17,468.81zM148.75,467.90C149.44,467.96 150.00,467.62 150.00,467.15C150.00,466.69 149.13,465.53 148.07,464.57C147.02,463.61 145.33,462.98 144.32,463.18C143.32,463.37 142.50,464.18 142.50,464.97C142.50,465.76 143.62,466.72 145.00,467.11C146.38,467.49 148.06,467.85 148.75,467.90zM299.42,463.89C296.16,463.83 291.48,463.42 289.00,462.99C286.52,462.55 279.10,461.40 272.50,460.43C265.90,459.45 258.52,457.82 256.11,456.80C253.69,455.78 252.01,454.65 252.38,454.29C252.74,453.93 253.57,454.17 254.22,454.82C255.01,455.61 259.76,456.00 268.54,456.00C277.14,456.00 283.35,456.50 286.50,457.45C289.15,458.25 291.62,459.38 291.98,459.97C292.35,460.56 295.26,461.47 298.46,461.99C301.66,462.51 304.51,463.18 304.80,463.47C305.09,463.76 302.67,463.95 299.42,463.89zM472.43,462.35C470.82,462.55 466.57,462.45 463.00,462.11C456.50,461.50 456.50,461.50 456.23,432.28C455.97,403.06 455.97,403.06 463.86,403.67C468.21,404.00 472.99,403.97 474.50,403.59C477.08,402.94 477.20,402.66 476.58,398.79C476.22,396.53 475.17,393.40 474.25,391.84C473.32,390.28 471.74,388.74 470.74,388.42C469.73,388.10 468.36,388.29 467.70,388.84C467.03,389.39 464.92,389.99 463.00,390.17C459.50,390.50 459.50,390.50 459.79,395.17C459.95,397.73 459.66,400.09 459.15,400.40C458.64,400.72 457.75,400.41 457.18,399.71C456.43,398.81 456.77,396.53 458.39,391.72C459.63,388.02 461.71,383.87 463.00,382.50C464.29,381.12 466.32,380.00 467.51,380.00C468.70,380.00 469.95,379.72 470.30,379.37C470.65,379.02 470.48,377.90 469.94,376.88C469.39,375.86 467.61,374.33 465.98,373.49C464.36,372.65 461.37,370.51 459.34,368.73C457.32,366.95 453.93,363.32 451.83,360.66C449.72,358.00 448.00,355.05 448.00,354.11C448.00,352.65 449.89,352.20 460.75,351.08C467.76,350.36 479.68,349.23 487.24,348.56C495.94,347.80 503.64,347.67 508.24,348.20C512.23,348.67 530.12,351.07 548.00,353.55C565.88,356.03 586.80,358.97 594.50,360.10C602.20,361.22 608.89,362.52 609.36,362.98C609.84,363.45 609.92,364.32 609.55,364.93C609.17,365.53 607.11,366.92 604.97,368.02C602.82,369.11 600.60,370.88 600.03,371.94C599.40,373.13 599.04,383.02 599.09,397.68C599.14,410.78 599.55,428.70 600.00,437.50C600.45,446.30 601.13,454.69 601.51,456.15C602.06,458.30 601.80,458.93 600.10,459.47C598.94,459.84 597.10,459.85 596.00,459.50C594.04,458.88 594.00,457.98 593.99,416.18C593.98,392.71 593.69,372.44 593.34,371.14C592.75,368.95 592.31,368.81 587.32,369.22C584.35,369.47 581.44,370.16 580.83,370.77C580.11,371.49 579.52,382.74 579.11,403.86C578.77,421.45 578.19,436.15 577.82,436.51C577.45,436.88 576.91,435.23 576.62,432.84C576.33,430.45 575.87,415.71 575.59,400.09C575.19,377.14 574.82,371.39 573.66,370.23C572.58,369.15 570.96,368.96 567.28,369.46C564.57,369.83 561.26,370.68 559.93,371.35C558.27,372.17 557.34,373.65 557.00,376.02C556.52,379.36 556.30,379.52 551.00,380.35C547.98,380.82 544.92,381.68 544.20,382.27C543.39,382.93 543.02,385.03 543.20,387.89C543.50,392.45 543.50,392.45 549.50,393.48C555.50,394.50 555.50,394.50 556.00,422.17C556.27,437.38 556.86,450.19 557.30,450.63C557.74,451.07 561.79,451.45 566.30,451.46C574.50,451.50 574.50,451.50 574.81,446.70C575.11,441.90 575.11,441.90 579.81,442.20C584.50,442.50 584.50,442.50 585.06,450.00C585.37,454.12 585.35,457.83 585.02,458.24C584.69,458.64 574.10,458.28 561.48,457.42C548.86,456.57 538.44,455.77 538.32,455.65C538.20,455.54 537.86,436.36 537.55,413.04C537.10,378.60 536.72,370.22 535.56,368.45C534.77,367.24 532.89,366.02 531.37,365.73C529.86,365.44 528.10,365.41 527.45,365.66C526.80,365.91 525.91,368.90 525.47,372.30C525.02,375.71 524.58,396.41 524.49,418.29C524.38,443.91 523.96,458.44 523.30,459.10C522.73,459.67 520.30,459.99 517.89,459.81C513.50,459.50 513.50,459.50 513.21,437.50C513.05,425.40 513.17,414.07 513.49,412.33C513.99,409.56 514.56,409.08 518.03,408.49C521.40,407.93 522.00,407.45 522.00,405.37C522.00,403.12 521.71,402.96 518.66,403.54C515.31,404.16 515.31,404.16 514.66,393.43C514.30,387.52 514.00,376.43 514.00,368.79C514.00,354.89 514.00,354.89 509.76,355.19C505.67,355.49 505.50,355.64 504.82,359.50C504.43,361.70 504.00,371.60 503.86,381.50C503.72,391.40 503.45,396.13 503.25,392.00C503.06,387.88 502.51,384.11 502.03,383.63C501.53,383.13 500.85,384.79 500.45,387.46C500.07,390.05 499.96,395.53 500.23,399.64C500.58,405.17 501.26,407.86 502.84,410.00C504.83,412.68 505.03,414.55 505.65,436.04C506.21,455.41 506.09,459.33 504.91,460.08C504.14,460.57 501.93,460.97 500.00,460.97C498.07,460.97 495.95,460.62 495.28,460.19C494.35,459.61 493.99,448.25 493.78,413.29C493.63,387.92 493.27,366.94 493.00,366.67C492.73,366.41 489.58,366.03 486.00,365.84C479.51,365.50 479.51,365.50 478.82,372.37C478.45,376.15 477.63,380.49 476.99,382.01C476.12,384.12 476.14,385.70 477.07,388.64C477.89,391.23 478.44,403.37 478.74,425.51C479.16,457.01 479.09,458.61 477.27,460.25C476.23,461.20 474.05,462.14 472.43,462.35zM657.75,458.84C655.41,458.75 643.33,458.35 630.91,457.96C618.48,457.56 607.44,456.77 606.37,456.20C604.71,455.31 604.51,454.40 604.96,449.83C605.50,444.50 605.50,444.50 611.90,444.20C615.42,444.03 618.76,444.36 619.32,444.92C620.03,445.63 619.81,446.55 618.63,447.85C617.06,449.59 617.05,449.81 618.54,450.38C619.43,450.72 623.45,451.00 627.46,451.00C631.47,451.00 636.66,451.67 638.99,452.50C641.33,453.32 646.67,454.07 650.87,454.17C655.07,454.26 659.29,454.73 660.25,455.21C661.21,455.68 662.00,456.73 662.00,457.54C662.00,458.62 660.89,458.96 657.75,458.84zM220.17,457.00C220.68,457.00 220.96,454.45 220.80,451.33C220.62,447.91 220.00,445.49 219.25,445.25C218.44,444.98 218.00,445.87 218.00,447.79C218.00,449.42 218.28,452.16 218.62,453.88C218.97,455.59 219.67,457.00 220.17,457.00zM428.85,449.00C418.50,449.00 417.11,448.80 416.79,447.25C416.60,446.29 417.43,444.71 418.63,443.75C420.44,442.30 422.89,442.00 432.91,442.00C444.22,442.00 445.00,442.13 445.00,443.94C445.00,445.01 444.00,446.59 442.78,447.44C441.07,448.64 437.83,449.00 428.85,449.00zM324.50,445.64C329.50,445.50 329.50,445.50 329.76,410.07C329.98,380.83 329.76,373.59 328.49,368.57C327.64,365.23 325.38,360.21 323.46,357.41C321.54,354.60 318.17,350.86 315.96,349.09C313.75,347.32 310.05,345.03 307.72,344.00C305.40,342.97 301.23,341.83 298.46,341.46C294.96,341.00 292.34,341.25 289.89,342.27C287.94,343.09 284.62,345.27 282.50,347.12C280.38,348.98 276.92,353.17 274.81,356.43C272.70,359.69 270.07,365.29 268.96,368.87C267.13,374.80 266.95,378.01 267.03,404.80C267.08,420.98 266.87,434.47 266.56,434.77C266.26,435.07 264.44,434.48 262.52,433.44C259.80,431.98 258.77,431.83 257.83,432.77C256.88,433.72 256.99,434.75 258.29,437.49C259.21,439.42 259.54,441.00 259.02,441.00C258.50,441.00 257.59,440.10 257.00,439.00C256.41,437.90 255.27,437.00 254.46,437.00C253.66,437.00 253.00,437.48 253.00,438.07C253.00,438.65 253.47,440.00 254.04,441.07C254.60,442.13 255.93,443.00 256.98,443.00C258.02,443.00 259.16,442.55 259.50,442.00C259.84,441.45 261.44,441.00 263.06,441.00C264.68,441.00 266.00,441.41 266.00,441.92C266.00,442.43 267.39,443.15 269.10,443.52C270.99,443.94 272.65,443.75 273.35,443.05C274.15,442.25 274.65,431.18 275.00,406.18C275.50,370.45 275.50,370.45 278.72,363.90C280.50,360.31 283.58,355.68 285.57,353.63C288.46,350.66 289.47,350.14 290.59,351.08C291.37,351.72 292.00,352.98 292.00,353.88C292.00,354.77 290.37,357.75 288.39,360.50C286.40,363.25 283.70,367.75 282.40,370.50C281.09,373.25 280.02,376.40 280.01,377.50C280.01,379.08 280.43,378.81 281.99,376.25C283.08,374.46 284.68,373.00 285.55,373.00C286.42,373.00 287.97,373.45 289.00,374.00C290.48,374.79 290.75,375.74 290.31,378.49C289.96,380.61 290.23,382.57 290.99,383.49C291.68,384.32 292.93,385.00 293.76,385.00C294.99,385.00 295.17,384.06 294.69,380.03C294.37,377.29 294.44,374.85 294.85,374.59C295.26,374.34 296.21,374.51 296.97,374.98C297.72,375.44 298.71,378.23 299.17,381.16C299.63,384.10 300.29,399.20 300.64,414.73C301.26,441.84 301.36,442.98 303.29,443.59C304.40,443.94 308.50,444.58 312.40,445.00C316.31,445.43 321.75,445.71 324.50,445.64zM323.86,439.22C323.11,439.50 321.44,439.34 320.15,438.86C317.86,438.01 317.81,437.76 318.34,428.75C318.64,423.66 318.88,412.86 318.88,404.75C318.88,390.00 318.88,390.00 321.50,390.00C324.12,390.00 324.12,390.00 324.09,404.75C324.07,412.86 324.32,423.82 324.64,429.10C325.10,436.69 324.94,438.81 323.86,439.22zM309.07,439.00C306.09,439.00 306.09,439.00 306.06,414.44C306.03,389.88 306.03,389.88 309.76,390.19C313.50,390.50 313.50,390.50 313.43,403.00C313.39,409.88 313.28,416.40 313.19,417.50C313.09,418.60 313.27,422.65 313.59,426.50C313.93,430.54 313.72,434.66 313.11,436.25C312.28,438.40 311.40,439.00 309.07,439.00zM425.23,433.62C418.96,434.18 418.96,434.18 419.23,410.84C419.50,387.50 419.50,387.50 429.66,387.55C436.60,387.59 440.33,388.03 441.43,388.94C442.83,390.11 443.00,393.03 442.77,411.89C442.50,433.50 442.50,433.50 438.50,433.27C436.30,433.14 433.82,433.04 433.00,433.05C432.18,433.05 428.68,433.31 425.23,433.62zM432.95,431.00C433.37,431.00 434.02,424.58 434.40,416.73C434.79,408.88 434.79,400.45 434.41,397.98C434.04,395.52 433.29,392.94 432.75,392.26C432.21,391.58 431.42,391.24 430.98,391.51C430.55,391.78 430.37,395.49 430.59,399.75C430.81,404.01 431.26,412.79 431.59,419.25C431.93,425.71 432.54,431.00 432.95,431.00zM205.50,428.76C204.40,428.90 203.05,428.67 202.50,428.26C201.84,427.76 201.67,408.25 202.00,371.50C202.41,325.35 202.75,315.06 203.94,313.00C204.72,311.62 205.66,308.93 206.01,307.00C206.48,304.44 206.85,306.31 207.38,314.00C207.78,319.77 207.97,347.90 207.81,376.50C207.51,427.63 207.47,428.50 205.50,428.76zM247.28,411.84C248.92,411.93 250.29,411.40 250.63,410.53C250.94,409.73 250.73,407.81 250.17,406.28C249.54,404.55 249.13,404.16 249.08,405.25C249.04,406.21 248.55,407.00 248.00,407.00C247.45,407.00 247.00,404.75 247.00,402.00C247.00,398.20 246.64,397.00 245.49,397.00C244.65,397.00 243.07,396.44 241.96,395.75C240.29,394.72 239.77,394.76 239.00,396.00C238.48,396.82 238.09,400.51 238.12,404.19C238.18,410.89 238.18,410.89 241.34,411.28C243.08,411.50 245.75,411.75 247.28,411.84zM73.50,405.88C74.05,405.93 75.17,405.55 75.99,405.03C77.06,404.35 77.18,403.78 76.40,403.00C75.81,402.41 71.44,401.21 66.70,400.34C61.96,399.47 57.37,399.03 56.52,399.36C55.66,399.68 54.67,400.69 54.33,401.58C53.99,402.48 54.32,403.58 55.08,404.05C55.84,404.52 58.27,404.67 60.48,404.38C62.69,404.09 66.30,404.30 68.50,404.83C70.70,405.36 72.95,405.84 73.50,405.88zM247.00,390.65C248.96,390.53 249.57,389.89 249.83,387.63C250.01,386.05 249.90,383.74 249.59,382.50C249.18,380.87 247.87,379.96 244.80,379.18C241.75,378.40 240.21,378.41 239.24,379.22C238.39,379.92 238.01,381.98 238.20,384.91C238.47,389.09 238.76,389.55 241.50,390.15C243.15,390.51 245.62,390.74 247.00,390.65zM678.89,389.00C680.41,389.00 680.82,387.88 681.35,382.25C681.70,378.54 681.94,371.90 681.88,367.50C681.83,363.10 681.49,356.80 681.14,353.51C680.66,349.02 680.08,347.44 678.82,347.20C677.87,347.02 676.56,347.89 675.82,349.19C674.87,350.84 674.50,356.19 674.50,368.00C674.50,379.61 674.88,385.17 675.79,386.75C676.49,387.99 677.89,389.00 678.89,389.00zM139.75,386.44C137.00,387.04 137.00,387.04 137.00,365.72C137.00,350.47 137.34,344.06 138.20,343.20C138.86,342.54 140.22,342.00 141.22,342.00C142.26,342.00 143.47,343.11 144.02,344.57C144.56,345.98 145.00,355.67 145.00,366.10C145.00,380.40 144.69,385.16 143.75,385.45C143.06,385.66 141.26,386.10 139.75,386.44zM308.60,385.82C304.71,386.14 304.71,386.14 305.25,380.23C305.54,376.98 306.52,372.89 307.43,371.13C308.34,369.37 309.49,368.18 309.97,368.48C310.46,368.79 311.39,371.39 312.03,374.27C312.67,377.15 313.04,380.85 312.85,382.50C312.54,385.19 312.10,385.53 308.60,385.82zM322.00,385.67C321.18,385.78 319.94,385.63 319.25,385.35C318.45,385.02 318.00,382.73 318.00,379.04C318.00,375.11 318.48,372.84 319.50,372.00C320.76,370.95 321.24,371.34 322.55,374.48C323.41,376.52 323.97,379.84 323.80,381.84C323.61,384.16 322.96,385.55 322.00,385.67zM110.23,380.60C111.89,380.27 114.26,380.00 115.50,380.00C117.71,380.00 117.77,379.69 118.37,365.75C118.71,357.91 119.10,347.23 119.24,342.00C119.50,332.50 119.50,332.50 116.82,332.19C115.34,332.02 112.75,332.59 111.07,333.47C109.18,334.44 108.00,335.83 108.00,337.07C108.00,338.19 106.78,340.22 105.29,341.60C103.01,343.72 102.52,345.12 102.18,350.53C101.95,354.06 102.06,358.09 102.40,359.47C102.75,360.86 103.65,362.00 104.40,362.00C105.40,362.00 105.95,364.52 106.48,371.60C107.20,381.21 107.20,381.21 110.23,380.60zM292.11,370.00C290.58,370.00 289.03,369.70 288.67,369.33C288.30,368.97 288.00,367.59 288.00,366.27C288.00,364.95 288.47,363.00 289.04,361.93C289.60,360.87 290.68,360.00 291.43,360.00C292.17,360.00 293.51,361.83 294.41,364.07C295.30,366.30 295.78,368.55 295.46,369.07C295.14,369.58 293.63,370.00 292.11,370.00zM301.98,368.00C301.59,368.00 299.82,364.18 298.06,359.52C296.30,354.85 295.14,350.58 295.49,350.02C295.84,349.46 297.33,349.01 298.81,349.02C300.29,349.03 303.42,349.92 305.77,350.98C308.11,352.04 310.30,353.62 310.63,354.47C311.00,355.44 310.30,356.77 308.80,357.94C307.46,358.99 305.54,361.69 304.53,363.93C303.52,366.17 302.37,368.00 301.98,368.00zM172.50,360.00C174.66,360.00 175.00,359.55 174.98,356.75C174.98,354.96 174.54,352.82 174.02,352.00C173.18,350.67 172.91,350.67 171.61,352.00C170.81,352.82 170.07,354.18 169.96,355.00C169.85,355.82 169.82,357.29 169.88,358.25C169.96,359.42 170.83,360.00 172.50,360.00zM689.76,359.00C690.18,359.00 691.13,358.02 691.88,356.82C692.63,355.62 693.61,353.37 694.05,351.83C694.49,350.29 694.51,348.81 694.09,348.56C693.67,348.30 692.35,348.77 691.16,349.60C689.57,350.72 689.00,352.15 689.00,355.06C689.00,357.23 689.34,359.00 689.76,359.00zM601.25,355.91C599.74,355.86 597.02,355.39 595.21,354.87C593.41,354.35 592.20,353.48 592.54,352.93C592.89,352.37 594.77,352.21 596.83,352.56C598.85,352.90 601.29,353.39 602.25,353.65C603.21,353.92 604.00,354.55 604.00,355.07C604.00,355.58 602.76,355.96 601.25,355.91zM559.79,349.21C559.08,349.46 554.73,349.11 550.12,348.44C545.52,347.76 541.47,346.82 541.12,346.34C540.78,345.86 537.80,345.37 534.50,345.24C531.20,345.12 523.55,344.34 517.50,343.50C511.45,342.67 504.48,341.88 502.00,341.75C498.01,341.53 497.47,341.22 497.24,339.00C497.10,337.62 497.40,335.85 497.92,335.06C498.71,333.84 499.31,333.82 501.68,334.91C503.23,335.62 510.79,337.08 518.48,338.17C526.17,339.25 532.97,340.56 533.59,341.08C534.22,341.60 538.28,342.47 542.62,343.02C546.95,343.57 552.72,344.57 555.42,345.26C558.13,345.94 560.51,347.01 560.72,347.63C560.92,348.25 560.50,348.96 559.79,349.21zM449.75,348.54C448.30,349.10 448.00,348.64 448.00,345.83C448.00,342.44 448.00,342.44 457.25,341.11C462.34,340.37 468.91,339.54 471.85,339.25C476.69,338.79 477.16,338.92 476.84,340.62C476.55,342.11 474.72,342.85 467.99,344.20C463.32,345.14 457.70,346.35 455.50,346.88C453.30,347.42 450.71,348.17 449.75,348.54zM171.95,348.00C172.88,348.00 174.64,346.94 175.86,345.65C177.78,343.60 177.88,343.14 176.58,342.07C175.67,341.31 174.98,338.65 174.80,335.17C174.54,330.27 174.23,329.50 172.50,329.50C170.78,329.50 170.46,330.26 170.23,335.00C170.08,338.02 169.45,341.50 168.83,342.72C167.97,344.41 168.00,345.29 168.97,346.47C169.67,347.31 171.01,348.00 171.95,348.00zM248.15,346.86C249.54,346.98 249.80,345.80 249.84,339.09C249.88,333.42 249.52,331.03 248.57,330.67C247.85,330.39 245.17,329.85 242.63,329.47C238.00,328.77 238.00,328.77 238.02,333.14C238.02,335.54 238.41,338.10 238.88,338.84C239.59,339.96 240.09,339.96 241.87,338.85C243.47,337.85 244.45,337.79 245.75,338.62C246.71,339.22 247.50,340.12 247.50,340.61C247.50,341.10 245.33,341.64 242.69,341.81C238.80,342.06 237.94,342.44 238.20,343.81C238.41,344.93 239.87,345.71 242.51,346.11C244.70,346.44 247.24,346.78 248.15,346.86zM586.50,343.75C584.85,343.74 582.38,343.52 581.00,343.27C579.62,343.02 567.92,340.79 555.00,338.33C542.08,335.86 525.20,332.71 517.50,331.34C506.19,329.32 501.49,328.94 493.00,329.37C485.83,329.73 477.11,331.15 465.50,333.87C454.25,336.50 448.16,337.51 447.50,336.86C446.83,336.20 447.10,335.42 448.29,334.54C449.27,333.82 452.87,332.53 456.29,331.68C459.70,330.82 471.05,328.93 481.50,327.48C498.33,325.13 501.30,324.96 507.50,326.00C511.35,326.65 521.02,328.54 529.00,330.20C536.98,331.85 552.95,335.38 564.50,338.04C576.05,340.69 586.40,343.07 587.50,343.32C588.72,343.59 588.32,343.76 586.50,343.75zM292.26,325.60C293.49,325.25 299.68,324.06 306.00,322.95C312.32,321.84 318.62,321.20 320.00,321.54C321.38,321.87 323.50,323.08 324.72,324.22C326.88,326.24 326.97,326.24 327.72,324.40C328.15,323.35 328.50,306.21 328.50,286.30C328.50,262.80 328.14,249.74 327.47,249.07C326.76,248.36 323.02,249.23 315.47,251.84C309.44,253.93 301.12,257.41 297.00,259.57C289.50,263.50 289.50,263.50 289.36,293.50C289.28,310.00 289.40,324.11 289.62,324.86C289.88,325.75 290.80,326.01 292.26,325.60zM246.69,324.84C247.90,324.93 249.18,324.52 249.54,323.94C249.89,323.36 249.92,321.82 249.60,320.53C249.12,318.64 247.97,317.94 243.83,317.06C239.75,316.18 238.48,316.22 237.84,317.22C237.39,317.93 237.24,319.10 237.51,319.83C237.78,320.56 238.00,321.77 238.00,322.52C238.00,323.30 239.38,324.04 241.25,324.28C243.04,324.50 245.49,324.75 246.69,324.84zM518.28,324.88C515.10,324.82 510.43,324.41 507.90,323.99C505.37,323.56 501.89,322.48 500.15,321.58C498.42,320.68 497.00,319.33 497.00,318.58C497.00,317.83 497.71,316.94 498.58,316.61C499.44,316.28 505.60,317.13 512.25,318.51C518.91,319.89 524.55,321.22 524.80,321.47C525.05,321.71 524.98,322.61 524.65,323.46C524.21,324.62 522.65,324.97 518.28,324.88zM461.12,320.92C458.03,320.87 452.91,320.21 449.74,319.44C446.57,318.67 442.64,317.35 441.01,316.50C439.33,315.64 437.74,313.83 437.38,312.37C436.95,310.67 437.20,309.49 438.11,308.91C438.88,308.43 441.87,308.02 444.76,308.02C447.65,308.01 454.12,308.91 459.13,310.03C464.14,311.15 469.09,312.51 470.12,313.06C471.15,313.62 472.00,314.70 472.00,315.46C472.00,316.23 470.81,317.79 469.37,318.93C467.37,320.50 465.37,320.98 461.12,320.92zM305.72,315.82C302.94,316.14 302.94,316.14 303.22,302.82C303.50,289.50 303.50,289.50 306.28,289.18C309.06,288.86 309.06,288.86 308.78,302.18C308.50,315.50 308.50,315.50 305.72,315.82zM729.75,315.88C734.29,315.95 738.00,315.58 738.00,315.08C738.00,314.57 736.43,313.64 734.51,313.00C732.59,312.37 728.19,311.81 724.72,311.76C721.26,311.70 717.55,312.16 716.47,312.76C714.87,313.66 714.78,313.96 716.00,314.37C716.83,314.65 718.40,315.08 719.50,315.33C720.60,315.57 725.21,315.82 729.75,315.88zM318.64,313.00C316.55,313.00 315.91,312.33 315.05,309.25C314.48,307.19 314.01,304.14 314.01,302.47C314.00,300.81 314.70,298.45 315.54,297.24C316.70,295.59 316.83,294.55 316.04,293.08C315.47,292.01 315.00,290.48 315.00,289.68C315.00,288.89 315.93,287.99 317.07,287.69C318.67,287.27 319.07,286.49 318.82,284.32C318.55,281.97 318.08,281.55 316.01,281.78C314.64,281.94 313.02,281.38 312.41,280.55C311.46,279.25 311.15,279.37 310.23,281.39C309.65,282.68 308.01,283.96 306.61,284.22C305.20,284.49 303.81,284.48 303.52,284.19C303.24,283.90 303.00,282.22 303.00,280.46C303.00,278.69 303.66,276.70 304.47,276.02C305.28,275.35 307.53,274.40 309.47,273.90C311.41,273.41 314.57,272.60 316.50,272.11C318.43,271.61 320.02,271.28 320.05,271.36C320.08,271.43 320.35,280.84 320.65,292.25C321.19,313.00 321.19,313.00 318.64,313.00zM521.80,312.00C520.99,312.00 520.03,311.70 519.67,311.33C519.30,310.97 519.00,302.32 519.00,292.12C519.00,275.88 519.18,273.75 520.45,275.04C521.56,276.15 522.07,280.75 522.59,294.25C523.16,309.47 523.05,312.00 521.80,312.00zM512.50,310.90C511.40,310.85 509.38,310.49 508.00,310.10C505.50,309.41 505.50,309.41 505.37,294.26C505.30,285.93 504.94,277.06 504.56,274.56C504.19,272.05 503.46,270.00 502.94,270.00C502.41,270.00 501.96,275.15 501.92,281.75C501.87,288.21 501.76,296.65 501.67,300.50C501.51,306.94 501.32,307.53 499.25,307.82C497.00,308.14 497.00,308.14 497.00,288.09C497.00,268.04 497.00,268.04 499.59,267.39C501.30,266.96 503.91,267.52 507.34,269.07C510.18,270.35 512.95,271.78 513.50,272.25C514.10,272.76 514.50,280.65 514.50,292.05C514.50,310.37 514.43,311.00 512.50,310.90zM471.16,304.40C470.70,304.68 469.35,304.23 468.16,303.40C466.05,301.93 466.00,301.32 466.00,279.44C466.00,264.22 466.34,257.00 467.07,257.00C467.65,257.00 469.00,257.47 470.07,258.04C471.89,259.01 472.00,260.35 472.00,281.48C472.00,293.80 471.62,304.11 471.16,304.40zM718.69,301.94C722.10,301.97 725.17,301.53 725.53,300.96C725.88,300.38 725.65,299.28 725.01,298.51C724.37,297.74 721.00,296.16 717.52,295.01C714.03,293.85 706.82,292.02 701.49,290.95C696.17,289.88 690.02,289.00 687.84,289.00C685.65,289.00 682.90,288.48 681.73,287.85C680.55,287.22 678.89,285.92 678.04,284.96C677.19,284.00 673.19,282.43 669.14,281.47C664.01,280.26 659.70,279.90 654.96,280.30C651.22,280.61 646.65,281.65 644.83,282.60C643.00,283.55 641.95,284.47 642.50,284.65C643.05,284.83 646.88,285.67 651.00,286.52C655.12,287.38 663.20,288.50 668.94,289.03C674.68,289.55 679.63,290.38 679.94,290.87C680.25,291.36 682.86,292.08 685.74,292.47C690.38,293.10 690.86,293.39 690.00,294.99C689.28,296.34 689.43,296.95 690.60,297.40C691.46,297.73 693.59,298.01 695.33,298.03C697.07,298.04 701.65,298.91 705.50,299.97C709.35,301.02 715.29,301.91 718.69,301.94zM457.75,300.97C456.51,300.95 454.71,300.48 453.75,299.92C452.27,299.06 452.00,297.37 452.00,288.83C452.00,278.88 452.03,278.77 454.25,279.37C455.49,279.70 457.29,279.98 458.25,279.99C459.80,280.00 460.00,281.17 460.00,290.50C460.00,300.73 459.94,301.00 457.75,300.97zM441.17,299.00C439.06,299.00 437.03,298.70 436.67,298.33C436.30,297.97 436.00,287.22 436.00,274.46C436.00,255.19 436.25,251.04 437.48,250.02C438.67,249.03 439.60,249.17 442.23,250.70C444.68,252.13 445.48,253.29 445.44,255.31C445.40,256.79 445.29,267.23 445.19,278.50C445.00,299.00 445.00,299.00 441.17,299.00zM159.60,293.77C160.09,293.48 162.75,292.22 165.50,290.97C168.25,289.72 177.47,285.80 186.00,282.27C194.53,278.74 204.83,274.49 208.89,272.83C216.28,269.82 216.28,269.82 218.39,272.40C220.22,274.64 222.30,275.32 234.00,277.49C241.43,278.87 250.51,280.50 254.18,281.13C257.85,281.76 261.56,282.00 262.43,281.67C263.49,281.26 264.00,279.78 264.00,277.09C264.00,273.12 264.00,273.12 255.75,270.64C251.21,269.28 242.24,266.78 235.80,265.08C229.37,263.39 222.67,262.00 220.93,262.00C218.80,262.00 216.58,263.04 214.13,265.19C212.13,266.95 204.55,271.22 197.29,274.69C190.02,278.16 181.82,281.89 179.06,282.98C176.30,284.07 170.91,286.53 167.09,288.45C163.27,290.38 159.82,292.48 159.42,293.13C159.02,293.78 159.10,294.07 159.60,293.77zM149.92,282.95C149.05,282.98 148.03,282.70 147.67,282.33C147.30,281.97 147.00,280.05 146.99,278.08C146.99,276.11 146.55,272.91 146.01,270.97C145.47,269.02 143.22,265.67 141.01,263.51C138.81,261.36 137.00,258.71 137.00,257.63C137.00,256.56 138.20,253.61 139.66,251.09C141.12,248.56 145.26,242.99 148.86,238.69C152.46,234.40 158.41,228.66 162.09,225.93C165.77,223.21 169.33,220.31 170.01,219.49C170.69,218.67 171.92,218.00 172.75,218.00C173.91,218.00 174.10,218.74 173.61,221.25C173.26,223.04 172.15,225.62 171.15,227.00C170.14,228.38 169.51,230.06 169.75,230.75C169.98,231.44 171.03,232.00 172.08,232.00C173.14,232.00 174.00,232.35 174.00,232.77C174.00,233.19 171.19,235.10 167.75,237.02C161.50,240.50 161.50,240.50 175.50,241.11C183.20,241.44 192.88,242.51 197.00,243.48C201.12,244.45 206.22,246.12 208.31,247.18C210.84,248.46 212.02,249.68 211.81,250.80C211.63,251.74 209.39,253.61 206.82,254.97C202.48,257.27 202.02,257.33 200.32,255.81C199.32,254.92 196.47,253.60 194.00,252.88C191.31,252.09 184.03,251.56 175.85,251.54C163.70,251.50 161.97,251.71 160.06,253.45C158.06,255.26 157.92,256.26 158.09,267.45C158.27,279.50 158.27,279.50 154.88,281.20C153.02,282.14 150.79,282.93 149.92,282.95zM459.75,277.89C459.61,277.84 458.32,277.16 456.88,276.40C455.44,275.64 453.79,274.45 453.23,273.76C452.66,273.07 451.88,268.56 451.48,263.75C450.88,256.39 451.00,255.00 452.23,255.00C453.04,255.00 455.12,255.49 456.85,256.10C460.00,257.20 460.00,257.20 460.00,267.60C460.00,273.32 459.89,277.95 459.75,277.89zM709.25,275.89C709.66,275.95 710.00,275.15 710.00,274.11C710.00,273.07 710.59,271.99 711.32,271.71C712.04,271.43 714.63,271.59 717.07,272.06C719.51,272.53 722.31,272.93 723.30,272.96C724.78,272.99 724.53,272.30 721.87,268.99C719.50,266.04 717.32,264.58 713.64,263.49C710.89,262.67 705.46,262.01 701.57,262.03C696.64,262.05 692.84,262.73 689.02,264.28C686.01,265.50 683.62,266.95 683.72,267.50C683.82,268.05 686.14,268.95 688.88,269.50C691.62,270.05 694.19,270.84 694.60,271.25C695.00,271.66 696.72,272.02 698.42,272.05C700.11,272.07 703.08,272.93 705.00,273.94C706.92,274.95 708.84,275.83 709.25,275.89zM532.77,262.00C531.98,262.00 531.03,261.70 530.67,261.33C530.30,260.97 530.00,257.82 530.00,254.33C530.00,249.37 530.32,248.00 531.50,248.00C532.65,248.00 533.00,249.27 533.00,253.42C533.00,256.40 533.27,259.55 533.61,260.42C533.99,261.41 533.68,262.00 532.77,262.00zM688.33,254.91C690.88,254.97 692.03,254.60 691.77,253.81C691.55,253.16 689.60,252.06 687.44,251.37C685.27,250.67 681.59,249.62 679.25,249.02C676.91,248.41 675.00,247.50 675.00,246.99C675.00,246.47 676.33,245.36 677.95,244.53C679.57,243.69 683.22,242.50 686.06,241.89C689.91,241.07 693.18,241.09 699.00,242.00C704.22,242.81 707.38,242.89 708.56,242.23C710.19,241.31 710.16,241.16 708.17,240.09C706.99,239.46 702.99,238.01 699.28,236.86C694.52,235.39 690.02,234.80 683.95,234.86C679.22,234.90 669.31,235.19 661.92,235.49C654.54,235.80 643.00,236.86 636.27,237.85C627.76,239.11 623.42,240.22 622.02,241.48C620.91,242.49 620.00,244.19 620.00,245.27C620.00,246.92 620.43,247.12 622.75,246.49C624.26,246.08 627.30,245.81 629.50,245.88C631.70,245.95 636.74,246.18 640.71,246.38C644.67,246.59 648.60,247.01 649.43,247.33C650.26,247.65 652.27,247.45 653.88,246.89C655.50,246.33 658.55,246.01 660.66,246.18C664.50,246.50 664.50,246.50 659.25,249.27C656.36,250.79 654.00,252.48 654.00,253.02C654.00,253.56 654.83,254.00 655.84,254.00C656.85,254.00 661.26,253.52 665.63,252.93C672.07,252.06 674.62,252.14 679.04,253.34C682.04,254.15 686.23,254.86 688.33,254.91zM377.09,252.97C378.48,253.00 378.77,250.21 379.34,231.25C379.70,219.29 379.99,203.65 379.98,196.50C379.98,189.35 379.53,182.82 378.99,182.00C378.17,180.74 376.09,181.50 365.76,186.88C359.02,190.39 353.09,193.63 352.60,194.08C352.10,194.53 351.80,201.22 351.92,208.95C352.10,221.00 351.92,223.00 350.60,223.00C349.76,223.00 344.22,221.26 338.29,219.13C332.35,217.00 325.12,214.48 322.20,213.51C318.70,212.36 314.95,211.91 311.14,212.18C306.49,212.52 304.23,213.37 299.44,216.56C294.78,219.67 293.51,221.06 293.55,223.01C293.58,224.38 293.92,228.73 294.30,232.67C295.00,239.84 295.00,239.84 291.55,241.97C289.65,243.14 287.81,245.01 287.46,246.13C287.11,247.24 287.11,248.44 287.47,248.80C287.82,249.16 291.58,248.16 295.81,246.58C300.04,245.00 308.23,242.43 314.00,240.87C319.77,239.30 325.79,238.01 327.37,238.01C328.95,238.00 339.75,240.97 351.37,244.59C362.99,248.22 373.18,251.58 374.00,252.06C374.82,252.54 376.22,252.95 377.09,252.97zM565.44,240.97C564.92,240.95 551.67,231.47 536.00,219.90C520.33,208.34 500.30,193.57 491.50,187.09C482.70,180.61 464.48,168.00 451.00,159.05C437.52,150.11 424.02,141.11 421.00,139.04C417.98,136.98 413.09,134.07 410.15,132.58C407.21,131.09 405.04,129.63 405.33,129.34C405.62,129.05 410.50,131.42 416.18,134.62C421.86,137.82 435.95,146.78 447.50,154.53C459.05,162.28 475.70,173.50 484.50,179.46C493.30,185.42 503.65,192.56 507.50,195.32C511.35,198.09 524.85,208.12 537.50,217.60C550.15,227.09 561.82,236.23 563.44,237.92C565.05,239.62 565.95,240.99 565.44,240.97zM352.62,237.95C350.90,237.92 346.80,237.02 343.50,235.96C340.20,234.90 334.91,233.52 331.75,232.89C326.00,231.74 326.00,231.74 326.00,226.37C326.00,222.00 326.31,221.00 327.69,221.00C328.62,221.00 335.26,222.76 342.44,224.90C349.62,227.05 356.74,229.08 358.25,229.42C360.07,229.83 361.00,230.68 361.00,231.95C361.00,233.00 359.81,234.79 358.37,235.93C356.92,237.07 354.33,237.98 352.62,237.95zM299.25,234.75C298.35,235.05 298.00,233.60 298.00,229.58C298.00,226.51 298.19,224.00 298.42,224.00C298.65,224.00 299.44,223.77 300.18,223.48C301.25,223.08 301.42,224.15 301.01,228.66C300.72,231.92 299.97,234.52 299.25,234.75zM466.82,221.36C465.03,221.79 463.63,221.48 462.57,220.43C461.71,219.57 460.73,217.76 460.39,216.42C460.02,214.93 460.41,213.02 461.41,211.49C462.31,210.12 463.67,209.00 464.43,209.00C465.20,209.00 466.99,210.38 468.41,212.08C469.83,213.77 471.00,216.22 471.00,217.52C471.00,218.82 470.66,220.07 470.25,220.30C469.84,220.53 468.30,221.01 466.82,221.36zM697.67,221.00C700.05,221.00 702.00,220.60 702.00,220.11C702.00,219.62 701.29,218.94 700.42,218.61C699.55,218.27 697.55,218.00 695.98,218.00C694.40,218.00 692.88,218.39 692.59,218.86C692.29,219.33 692.34,220.01 692.69,220.36C693.05,220.71 695.28,221.00 697.67,221.00zM284.10,200.50C284.87,200.06 294.95,193.53 306.50,185.98C318.05,178.44 334.02,168.04 342.00,162.87C349.98,157.69 360.51,150.99 365.41,147.98C370.31,144.97 376.35,140.59 378.83,138.26C381.32,135.92 383.06,133.72 382.70,133.37C382.35,133.02 375.41,136.90 367.28,141.99C359.15,147.09 348.00,154.45 342.50,158.36C337.00,162.26 327.77,168.56 322.00,172.35C316.23,176.15 305.32,183.72 297.77,189.19C290.22,194.65 283.74,199.61 283.37,200.21C282.93,200.93 283.18,201.03 284.10,200.50zM416.53,187.00C416.21,187.00 415.65,186.26 415.31,185.36C414.92,184.35 415.39,183.19 416.53,182.36C417.55,181.61 418.97,181.00 419.69,181.00C420.41,181.00 421.00,181.88 421.00,182.96C421.00,184.05 420.13,185.40 419.07,185.96C418.00,186.53 416.86,187.00 416.53,187.00zM647.49,181.27C648.58,180.96 651.17,179.59 653.25,178.22C656.42,176.12 658.56,175.64 666.76,175.21C673.97,174.83 676.79,174.30 677.63,173.15C678.33,172.20 680.17,171.64 682.38,171.70C684.37,171.76 686.00,171.45 686.00,171.02C686.00,170.58 684.89,169.50 683.54,168.62C682.18,167.73 679.56,167.00 677.71,167.00C675.87,167.00 672.27,167.71 669.72,168.58C667.17,169.45 664.27,170.01 663.29,169.82C661.94,169.56 662.47,168.87 665.50,166.99C669.50,164.50 669.50,164.50 665.50,164.17C662.32,163.90 659.82,164.72 653.30,168.17C648.45,170.73 644.67,173.44 644.05,174.80C643.47,176.06 643.00,177.94 643.00,178.96C643.00,179.99 643.56,181.06 644.25,181.33C644.94,181.60 646.39,181.57 647.49,181.27zM450.38,166.91C449.90,166.85 445.90,164.77 441.50,162.28C437.10,159.79 429.11,154.89 423.75,151.38C418.39,147.88 414.00,144.78 414.00,144.49C414.00,144.20 415.91,144.93 418.25,146.12C420.59,147.31 427.90,151.67 434.50,155.82C441.10,159.97 447.57,164.18 448.88,165.18C450.20,166.18 450.87,166.96 450.38,166.91zM378.02,124.72C376.50,125.93 374.98,126.65 374.63,126.30C374.28,125.95 374.00,123.01 374.00,119.77C374.00,116.52 373.49,112.89 372.86,111.68C372.23,110.48 370.20,107.81 368.36,105.75C366.42,103.58 365.00,100.92 365.00,99.46C365.00,98.06 365.90,95.16 367.00,93.00C368.10,90.85 370.69,87.38 372.77,85.29C374.84,83.21 378.70,79.52 381.34,77.10C383.98,74.67 387.86,70.15 389.97,67.05C392.08,63.94 394.97,58.98 396.40,56.01C397.83,53.05 399.00,49.94 399.00,49.10C399.00,48.26 397.78,46.60 396.28,45.41C393.83,43.45 393.68,42.99 394.78,40.59C395.44,39.14 396.61,37.70 397.37,37.41C398.14,37.12 400.04,38.06 401.61,39.51C404.42,42.12 404.43,42.18 402.73,45.15C401.78,46.81 401.00,48.79 401.00,49.55C401.00,50.32 402.05,53.32 403.34,56.22C404.63,59.12 408.43,64.88 411.80,69.00C415.16,73.12 419.74,78.53 421.96,81.00C424.18,83.47 426.96,87.44 428.12,89.82C429.68,93.00 430.11,95.31 429.74,98.58C429.47,101.02 428.18,104.59 426.87,106.50C425.57,108.42 424.05,109.98 423.50,109.97C422.95,109.96 421.82,108.50 421.00,106.73C420.05,104.69 417.91,102.70 415.19,101.32C412.81,100.13 407.95,98.83 404.37,98.45C400.24,98.01 395.67,98.22 391.82,99.04C388.28,99.79 384.52,101.37 382.75,102.86C379.73,105.40 379.73,105.41 380.25,113.95C380.76,122.35 380.73,122.54 378.02,124.72zM407.25,122.94C406.84,122.90 405.59,122.50 404.47,122.05C402.67,121.32 402.42,120.23 402.23,112.11C402.02,103.00 402.02,103.00 405.01,103.00C408.00,103.00 408.00,103.00 408.00,113.00C408.00,118.50 407.66,122.97 407.25,122.94zM391.25,121.81C389.46,121.99 387.98,121.99 387.97,121.81C387.95,121.64 387.70,118.02 387.42,113.76C387.11,109.02 387.35,105.22 388.03,103.95C388.81,102.49 389.92,101.97 391.82,102.19C394.50,102.50 394.50,102.50 394.50,112.00C394.50,121.50 394.50,121.50 391.25,121.81zM425.25,96.00C425.82,96.00 426.00,94.75 425.66,93.07C425.34,91.46 424.14,88.16 423.00,85.73C421.86,83.29 417.55,77.38 413.43,72.58C409.31,67.79 404.55,61.40 402.85,58.39C401.15,55.37 399.63,53.04 399.48,53.20C399.32,53.37 397.31,57.10 395.01,61.50C392.71,65.90 389.96,70.43 388.91,71.56C387.86,72.70 387.00,74.11 387.00,74.70C387.00,75.29 388.91,76.03 391.25,76.33C393.59,76.64 397.85,77.18 400.73,77.54C403.61,77.89 407.11,79.09 408.52,80.19C410.07,81.41 410.87,82.85 410.56,83.85C410.28,84.76 410.37,85.99 410.77,86.58C411.17,87.17 413.87,88.94 416.77,90.50C419.66,92.06 422.53,93.94 423.14,94.67C423.75,95.40 424.70,96.00 425.25,96.00z" />

</svg>