<?xml version="1.0" standalone="no"?>
<!DOCTYPE svg PUBLIC "-//W3C//DTD SVG 20010904//EN"
 "http://www.w3.org/TR/2001/REC-SVG-20010904/DTD/svg10.dtd">
<svg version="1.0" xmlns="http://www.w3.org/2000/svg"
 width="512.000000pt" height="512.000000pt" viewBox="0 0 512.000000 512.000000"
 preserveAspectRatio="xMidYMid meet">
<metadata>
Created by potrace 1.16, written by Peter Selinger 2001-2019
</metadata>
<g transform="translate(0.000000,512.000000) scale(0.100000,-0.100000)"
fill="#000000" stroke="none">
<path d="M2743 4385 c-7 -49 -17 -142 -23 -205 -6 -63 -18 -187 -27 -275 -8
-88 -17 -217 -20 -287 -3 -106 -6 -126 -19 -121 -10 4 -13 14 -8 38 5 31 4 34
-23 37 -25 3 -28 8 -31 41 -4 43 -22 51 -22 8 0 -16 -7 -34 -15 -41 -8 -7 -15
-20 -16 -29 0 -9 -19 -30 -42 -46 -23 -17 -55 -51 -72 -76 l-30 -46 -82 -7
c-44 -4 -93 -4 -107 0 -20 5 -26 2 -26 -9 0 -9 8 -21 18 -27 9 -6 13 -13 7
-16 -6 -2 -9 -91 -7 -244 2 -163 0 -240 -7 -240 -7 0 -11 37 -11 99 0 55 -4
101 -8 103 -4 2 -22 33 -40 71 -26 56 -36 67 -56 67 -19 0 -25 6 -28 28 l-3
27 -170 3 c-151 2 -171 1 -182 -15 -19 -24 -17 -122 2 -143 17 -19 20 -38 17
-107 l-2 -43 -104 0 c-102 0 -105 -1 -125 -27 -11 -16 -35 -42 -52 -59 -24
-23 -30 -36 -24 -53 3 -11 11 -21 16 -21 5 0 9 -70 9 -165 l0 -165 -112 0
c-99 0 -115 -2 -145 -22 -22 -16 -33 -31 -33 -48 0 -20 -11 -31 -50 -52 l-50
-28 0 -54 c0 -39 4 -55 15 -60 13 -4 15 -38 15 -215 l0 -209 -25 -6 c-13 -3
-29 -15 -35 -26 -6 -11 -17 -20 -25 -20 -8 0 -20 -8 -26 -18 -8 -12 -20 -17
-34 -14 -33 6 -68 -32 -62 -66 8 -41 -22 -92 -53 -92 -36 0 -70 -34 -70 -71 0
-25 -5 -30 -30 -36 -42 -8 -73 -49 -66 -87 3 -16 1 -35 -4 -41 -26 -31 29
-115 74 -115 22 0 24 -3 19 -40 -5 -36 -3 -40 21 -50 16 -6 26 -17 26 -29 0
-29 47 -61 90 -61 31 0 44 -7 74 -40 35 -39 36 -43 36 -115 0 -73 -1 -75 -20
-63 -11 7 -20 21 -20 30 0 10 -11 25 -25 34 -33 22 -72 6 -86 -35 -8 -22 -19
-31 -44 -35 -44 -9 -59 -28 -52 -70 5 -34 5 -34 -46 -46 -69 -16 -168 -59
-242 -104 l-60 -36 645 2 c611 1 626 2 277 8 -202 4 -369 9 -372 12 -18 17
2056 23 2960 9 446 -8 413 -10 -245 -20 -416 -7 -403 -7 320 -9 l755 -2 -45
31 c-65 44 -136 79 -210 104 -64 22 -65 23 -62 55 4 37 -14 86 -34 94 -8 3
-14 19 -14 40 0 40 -22 66 -55 66 -15 0 -26 7 -30 20 -4 11 -19 27 -35 35 -18
9 -27 21 -24 29 7 17 -17 65 -44 89 -15 14 -33 18 -66 16 -25 -2 -48 0 -52 4
-4 4 -15 7 -24 7 -22 0 -30 -60 -30 -232 0 -107 -2 -128 -15 -128 -12 0 -15
18 -15 98 0 100 -8 172 -19 172 -3 0 -5 -61 -3 -135 3 -118 2 -135 -12 -135
-14 0 -16 19 -16 135 l0 135 -55 0 -55 0 0 -135 0 -135 -25 0 -25 0 0 308 0
307 125 0 125 0 0 -112 c0 -69 4 -113 10 -113 14 0 13 -24 10 503 -2 424 -1
467 14 467 9 0 16 8 16 20 0 11 -4 20 -10 20 -5 0 -10 7 -10 15 0 13 -23 15
-145 15 l-145 0 0 198 c0 187 1 199 20 215 24 21 17 41 -11 32 -11 -4 -69 -3
-128 0 l-108 7 -6 217 c-4 175 -3 222 9 245 18 38 19 36 -21 36 -19 0 -35 5
-35 10 0 6 -45 10 -115 10 -104 0 -116 -2 -127 -20 -11 -17 -24 -20 -80 -20
-42 0 -70 -5 -75 -12 -4 -7 -6 -48 -4 -90 l3 -78 -52 0 -51 0 3 205 3 205 -30
0 -30 1 34 17 c61 30 51 42 -33 42 l-76 0 0 171 c0 140 -3 174 -15 183 -11 8
-18 65 -31 246 -8 129 -21 294 -28 365 l-12 130 -11 -90z m22 -427 l7 -178
-27 0 c-20 0 -25 4 -21 18 2 9 8 98 12 197 4 99 10 171 14 160 4 -11 11 -100
15 -197z m3 -380 l-2 -183 -3 168 c-3 159 -4 167 -23 167 -11 0 -20 7 -20 15
0 9 9 15 25 15 l25 0 -2 -182z m-97 -124 c15 -7 37 -26 49 -41 l22 -28 -137
-3 c-76 -1 -140 0 -143 2 -11 12 33 59 71 77 45 21 89 19 138 -7z m92 -111
c-56 -2 -151 -2 -210 0 -59 1 -13 3 102 3 116 0 164 -2 108 -3z m91 -39 c11
-29 7 -394 -5 -394 -25 0 -49 22 -48 43 1 12 1 69 0 127 -2 144 -21 112 -21
-36 l0 -111 -57 13 c-75 18 -167 17 -218 -1 -22 -8 -43 -15 -47 -15 -5 0 -8
88 -8 195 l0 195 199 0 c172 0 200 -2 205 -16z m96 -204 c0 -120 -4 -190 -10
-190 -6 0 -10 70 -10 190 0 120 4 190 10 190 6 0 10 -70 10 -190z m-690 -30
c0 -133 -4 -210 -10 -210 -6 0 -10 77 -10 210 0 133 4 210 10 210 6 0 10 -77
10 -210z m-240 110 l0 -30 -150 0 c-127 0 -150 2 -150 15 0 12 19 15 110 15
91 0 110 3 110 15 0 11 11 15 40 15 38 0 40 -2 40 -30z m-80 -200 c0 -127 -2
-150 -15 -150 -13 0 -15 23 -15 150 0 127 2 150 15 150 13 0 15 -23 15 -150z
m80 5 c0 -90 -4 -145 -10 -145 -5 0 -10 6 -11 13 0 10 -2 10 -6 0 -2 -7 -11
-13 -19 -13 -11 0 -14 27 -14 145 l0 145 30 0 30 0 0 -145z m90 132 c0 -7 9
-30 20 -52 16 -31 20 -59 20 -132 l0 -93 -55 0 -55 0 0 145 0 145 35 0 c22 0
35 -5 35 -13z m1318 -24 c-15 -2 -42 -2 -60 0 -18 2 -6 4 27 4 33 0 48 -2 33
-4z m-1538 -98 l0 -75 -80 0 -80 0 0 75 0 75 80 0 80 0 0 -75z m1610 50 c0
-11 -12 -15 -45 -15 -33 0 -45 4 -45 15 0 11 12 15 45 15 33 0 45 -4 45 -15z
m0 -45 c0 -5 -18 -10 -39 -10 -22 0 -43 5 -46 10 -4 6 12 10 39 10 25 0 46 -4
46 -10z m-102 -117 c1 -51 -1 -93 -4 -93 -4 0 -18 10 -31 22 -20 19 -23 31
-23 95 l0 74 28 -3 27 -3 3 -92z m102 -93 l0 -180 -40 0 -41 0 3 71 c1 39 6
73 11 76 4 2 3 11 -4 19 -6 8 -14 55 -17 104 l-5 90 47 0 46 0 0 -180z m-1140
116 c-14 -7 -36 -17 -50 -21 -23 -6 -23 -5 5 14 17 12 39 21 50 21 18 -1 17
-2 -5 -14z m421 -15 c30 -12 90 -41 134 -67 44 -25 95 -48 113 -51 48 -8 39
-21 -12 -18 -30 2 -60 13 -88 33 -62 42 -143 82 -223 109 -67 23 -68 24 -24
19 25 -3 70 -14 100 -25z m-86 -19 c92 -36 214 -106 193 -110 -15 -3 -101 23
-185 57 -83 33 -62 5 25 -34 155 -70 164 -64 -100 -64 l-238 -1 0 23 c0 28 32
77 62 93 32 18 93 17 129 -1 16 -9 43 -34 59 -57 24 -32 30 -37 30 -20 0 26
-43 78 -81 97 -55 29 -152 14 -188 -29 -7 -8 -29 -20 -49 -27 -20 -6 -70 -27
-110 -46 -41 -19 -76 -32 -79 -30 -7 8 113 94 172 125 142 72 223 77 360 24z
m422 -18 c-3 -3 -12 -4 -19 -1 -8 3 -5 6 6 6 11 1 17 -2 13 -5z m-1545 -499
l-2 -455 -138 2 c-95 1 -112 3 -54 5 l82 4 0 439 c0 384 2 440 15 440 8 0 15
5 15 10 0 6 19 10 43 10 l42 0 -3 -455z m565 430 l-28 -25 -254 0 c-158 0
-256 4 -260 10 -4 7 76 10 232 11 168 0 250 4 278 14 58 19 63 17 32 -10z
m1203 0 l0 -25 -125 0 -125 0 0 25 0 25 125 0 125 0 0 -25z m-996 -39 c-5 -23
-11 -26 -52 -26 -25 0 -43 2 -41 4 10 10 94 55 97 52 1 -2 0 -15 -4 -30z m998
-33 c2 -10 2 -201 0 -425 l-4 -408 -28 0 -27 0 -6 167 c-4 91 -7 282 -7 425
l0 258 34 0 c24 0 35 -5 38 -17z m46 -57 c2 -44 0 -57 -10 -54 -8 3 -14 26
-16 62 -2 44 0 57 10 54 8 -3 14 -26 16 -62z m-1488 -346 c0 -253 -4 -390 -10
-390 -5 0 -10 -4 -10 -10 0 -7 232 -10 675 -10 l675 0 0 -50 0 -50 -677 -2
-678 -3 -2 -190 -2 -190 -83 4 c-46 2 -86 5 -90 8 -5 2 -8 290 -8 639 l0 634
105 0 105 0 0 -390z m385 380 c-4 -6 -58 -10 -130 -10 -72 0 -126 4 -130 10
-4 6 42 10 130 10 88 0 134 -4 130 -10z m830 0 c-4 -6 -138 -10 -371 -10 -236
0 -364 4 -364 10 0 6 130 10 371 10 244 0 368 -3 364 -10z m139 -82 c0 -29 -2
-172 -4 -318 l-4 -265 -6 200 c-5 179 -6 186 -8 69 -3 -201 -14 -374 -24 -374
-4 0 -9 55 -9 123 -1 100 -3 112 -9 69 -4 -29 -11 -56 -14 -59 -3 -4 -6 117
-6 268 l1 274 42 32 c23 17 42 32 42 32 0 1 0 -23 -1 -51z m-394 -354 c0 -216
-4 -334 -10 -334 -6 0 -10 120 -10 341 0 224 3 338 10 334 6 -4 10 -128 10
-341z m-500 1 c0 -291 -2 -335 -15 -335 -13 0 -15 37 -15 271 l0 271 -54 -46
c-30 -25 -57 -46 -60 -46 -3 0 -7 28 -9 63 -2 34 -4 -67 -5 -225 l-2 -288 -25
0 -25 0 0 335 0 335 105 0 105 0 0 -335z m430 235 c0 -95 -1 -100 -18 -91 -10
5 -24 17 -32 25 -25 31 -30 15 -30 -94 l0 -110 41 0 c24 0 38 -4 34 -10 -3 -5
-22 -10 -41 -10 l-34 0 0 -140 c0 -87 -4 -140 -10 -140 -6 0 -10 100 -10 280
0 273 0 280 -20 280 -20 0 -20 -7 -20 -280 0 -242 -2 -280 -15 -280 -13 0 -15
39 -15 291 l0 291 -29 29 c-37 37 -79 38 -120 3 l-31 -26 -2 -291 -3 -292 -22
-3 -23 -3 0 335 0 336 200 0 200 0 0 -100z m-800 -174 c0 -222 -2 -266 -15
-276 -10 -8 -15 -31 -15 -66 0 -47 -2 -54 -20 -54 -20 0 -20 7 -20 330 l0 330
35 0 35 0 0 -264z m130 -66 l0 -330 -39 0 -38 0 -7 92 c-3 50 -6 198 -6 330
l0 238 45 0 45 0 0 -330z m960 203 c0 -71 2 -219 4 -330 l5 -203 -104 0 -105
0 0 330 0 330 100 0 100 0 0 -127z m650 68 l0 -49 -72 -7 c-40 -3 -118 -5
-173 -3 l-100 3 -3 53 -3 52 175 0 176 0 0 -49z m-3 -613 l-2 -533 -170 0
-170 0 -3 533 -2 532 174 0 175 0 -2 -532z m-2299 352 c5 -31 -49 -41 -209
-38 l-154 3 -3 28 -3 27 183 -2 c153 -3 183 -5 186 -18z m1162 5 c0 -12 -14
-15 -64 -15 -60 0 -84 8 -69 24 3 3 35 6 70 6 49 0 63 -3 63 -15z m-280 -10
c0 -11 -12 -15 -45 -15 -33 0 -45 4 -45 15 0 11 12 15 45 15 33 0 45 -4 45
-15z m478 3 c-7 -20 -68 -23 -68 -4 0 12 10 16 36 16 24 0 34 -4 32 -12z
m-470 -45 c2 -9 -11 -13 -47 -13 -39 0 -51 4 -51 16 0 12 10 14 47 12 26 -2
48 -9 51 -15z m272 7 c0 -18 -28 -23 -85 -15 -78 9 -68 25 15 25 41 0 70 -4
70 -10z m-123 -232 c-1 -40 -3 -10 -3 67 0 77 1 110 3 73 2 -37 2 -100 0 -140z
m-235 19 c2 -48 0 -87 -4 -87 -5 0 -7 60 -6 133 2 133 5 117 10 -46z m1778
113 c0 -6 -48 -10 -125 -10 -77 0 -125 4 -125 10 0 6 48 10 125 10 77 0 125
-4 125 -10z m-2660 -65 l0 -45 -60 0 -60 0 0 -75 0 -75 30 0 30 0 0 -88 0 -89
-32 0 c-18 0 -46 -4 -62 -8 -17 -5 -31 -4 -35 3 -3 5 -5 103 -3 216 l3 206 94
0 95 0 0 -45z m2660 -325 l0 -361 -127 3 -128 3 2 325 c2 179 3 328 3 332 0 4
53 9 118 11 l117 3 -123 0 c-120 -1 -122 -1 -122 22 0 22 2 22 130 22 l130 0
0 -360z m-2680 210 c-8 -5 -19 -10 -25 -10 -5 0 -3 5 5 10 8 5 20 10 25 10 6
0 3 -5 -5 -10z m228 -107 l-3 -38 -122 -3 -123 -3 0 41 0 40 126 0 125 0 -3
-37z m1733 27 c17 0 19 -8 19 -62 0 -77 -8 -91 -43 -82 -20 4 -27 12 -27 31 0
21 3 23 23 17 21 -6 21 -6 6 12 -22 25 -31 97 -11 89 7 -3 22 -5 33 -5z
m-1879 -257 l3 -168 48 -3 47 -3 0 170 c0 164 1 171 20 171 19 0 20 -7 20
-200 l0 -200 -114 0 -115 0 -3 193 c-2 105 -2 195 0 200 2 4 23 7 47 7 l45 0
2 -167z m76 150 c-2 -12 -12 -18 -28 -18 -16 0 -26 6 -28 18 -3 13 3 17 28 17
25 0 31 -4 28 -17z m1732 -158 l0 -175 -96 0 c-99 0 -101 1 -66 42 19 22 11
32 -77 98 -149 110 -286 155 -471 154 -191 0 -320 -44 -485 -163 -44 -32 -90
-63 -102 -70 l-23 -12 0 151 0 150 660 0 660 0 0 -175z m-506 80 c33 -9 89
-31 125 -50 62 -31 184 -115 196 -136 4 -5 -201 -9 -522 -9 l-528 1 54 49 c87
79 224 142 356 164 57 9 260 -3 319 -19z m565 4 l32 -11 -3 -132 c-3 -125 -4
-131 -23 -128 -45 7 -45 6 -45 147 0 74 2 135 4 135 1 0 17 -5 35 -11z m-2056
-58 c22 -26 24 -38 22 -97 -4 -81 -21 -105 -60 -84 -40 22 -41 3 -2 -34 42
-39 47 -70 15 -87 -12 -7 -30 -21 -39 -33 -16 -19 -18 -20 -24 -3 -4 9 -5 27
-2 39 6 23 -16 58 -37 58 -17 0 -12 -101 7 -137 17 -32 17 -33 -9 -49 -17 -11
-24 -24 -21 -36 4 -14 -1 -18 -24 -18 -34 0 -36 8 -8 44 22 28 20 53 -6 61
-49 16 -47 13 -29 40 16 24 16 27 0 44 -25 28 -12 83 31 127 30 31 39 35 66
30 18 -4 34 -11 35 -16 2 -6 12 -10 22 -10 12 0 20 10 25 33 14 71 17 119 6
130 -6 6 -11 15 -11 19 0 17 19 7 43 -21z m1540 -188 c-139 -2 -367 -2 -505 0
-139 1 -26 2 252 2 278 0 391 -1 253 -2z m237 -68 l0 -45 -485 0 -485 0 0 29
c0 16 -3 36 -6 45 -6 14 41 16 485 16 l491 0 0 -45z m-1128 -5 c-2 -14 -9 -31
-15 -38 -7 -9 -7 -16 1 -24 8 -8 12 -79 12 -235 l0 -223 -84 0 -83 0 -7 77
c-3 42 -6 166 -6 275 l0 199 93 -3 c92 -3 92 -3 89 -28z m1348 -245 l0 -275
-95 0 -94 0 -3 253 c-2 138 -2 262 0 275 3 21 8 22 98 22 l94 0 0 -275z m83
255 c11 -9 -4 -520 -15 -520 -4 0 -9 96 -10 213 l-2 212 -6 -215 c-7 -313 -24
-276 -28 60 l-2 270 27 -6 c16 -4 32 -10 36 -14z m-1303 -30 c0 -15 -6 -20
-27 -19 -24 2 -25 2 -5 6 12 2 22 11 22 19 0 8 2 14 5 14 3 0 5 -9 5 -20z
m1682 0 l48 0 -1 -282 c-1 -282 -6 -356 -23 -330 -4 7 -5 24 -2 37 6 23 -14
55 -34 55 -5 0 -16 8 -26 18 -10 9 -31 18 -48 19 -63 4 -66 6 -61 24 4 12 -1
22 -14 29 -17 8 -24 7 -41 -10 -11 -11 -20 -24 -20 -30 0 -5 -11 -10 -25 -10
-19 0 -26 -7 -33 -32 -7 -26 -10 -8 -14 82 -5 87 -3 411 1 439 1 2 56 1 123
-2 66 -4 143 -7 170 -7z m-2132 -211 c0 -195 -1 -210 -17 -207 -16 3 -19 22
-23 188 -6 212 -20 180 -20 -45 l0 -132 -44 1 c-52 1 -96 -32 -96 -72 0 -14
-5 -22 -12 -20 -10 4 -14 65 -16 251 l-2 247 115 0 115 0 0 -211z m1457 165
c-9 -9 -997 -11 -997 -2 0 4 226 8 502 8 276 0 499 -3 495 -6z m-1044 -21 c-7
-2 -19 -2 -25 0 -7 3 -2 5 12 5 14 0 19 -2 13 -5z m132 -23 c-3 -5 -24 -10
-46 -10 -21 0 -39 5 -39 10 0 6 21 10 46 10 27 0 43 -4 39 -10z m270 0 c-3 -5
-22 -10 -41 -10 -19 0 -34 5 -34 10 0 6 18 10 41 10 24 0 38 -4 34 -10z m355
0 c0 -5 -18 -10 -40 -10 -22 0 -40 5 -40 10 0 6 18 10 40 10 22 0 40 -4 40
-10z m270 0 c0 -5 -16 -10 -35 -10 -19 0 -35 5 -35 10 0 6 16 10 35 10 19 0
35 -4 35 -10z m17 -32 c-3 -7 -5 -2 -5 12 0 14 2 19 5 13 2 -7 2 -19 0 -25z
m-767 -3 c0 -11 -12 -15 -45 -15 -33 0 -45 4 -45 15 0 11 12 15 45 15 33 0 45
-4 45 -15z m630 0 c0 -11 -12 -15 -50 -15 -38 0 -50 4 -50 15 0 11 12 15 50
15 38 0 50 -4 50 -15z m122 -9 c4 -6 8 -89 8 -183 l0 -173 -40 0 -40 0 0 183
c0 101 2 186 5 189 9 8 59 -4 67 -16z m-897 -8 c3 -13 4 -95 3 -183 l-3 -160
-37 -3 -38 -3 0 185 0 186 35 0 c28 0 36 -5 40 -22z m260 -120 c4 -79 5 -159
3 -178 -3 -31 -6 -35 -35 -38 l-33 -3 0 180 0 181 29 0 29 0 7 -142z m365 -32
c0 -100 -4 -177 -10 -181 -5 -3 -21 -3 -35 1 l-25 6 0 174 0 174 35 0 35 0 0
-174z m-740 -25 c0 -166 0 -169 -22 -175 -60 -16 -58 -21 -58 163 0 168 0 170
23 174 61 12 57 23 57 -162z m546 117 c-75 -6 -112 -6 -119 1 -8 8 24 11 109
10 l119 -2 -109 -9z m-349 -185 c-2 -32 -3 -6 -3 57 0 63 1 89 3 58 2 -32 2
-84 0 -115z m640 -5 c-2 -35 -3 -9 -3 57 0 66 1 94 3 63 2 -32 2 -86 0 -120z
m-280 -20 c-2 -35 -3 -7 -3 62 0 69 1 97 3 63 2 -35 2 -91 0 -125z m1597 126
c9 -3 16 -14 16 -25 0 -10 9 -23 21 -30 17 -8 20 -17 15 -40 -5 -25 -3 -29 18
-29 29 0 41 -24 21 -40 -13 -10 -11 -15 10 -32 38 -30 33 -73 -12 -97 -28 -14
-40 -14 -25 1 7 7 12 22 12 35 0 18 -10 27 -41 39 -28 12 -37 20 -30 27 18 18
12 52 -13 77 -19 17 -24 29 -19 51 3 16 0 35 -6 42 -17 22 1 33 33 21z m-2851
-44 c15 0 17 -10 17 -79 l0 -79 -30 -4 c-18 -3 -35 1 -44 11 -9 8 -32 15 -51
14 l-35 -1 0 51 c1 51 2 52 43 73 23 12 51 20 62 18 11 -2 28 -4 38 -4z m1154
-107 c-2 -21 -4 -4 -4 37 0 41 2 58 4 38 2 -21 2 -55 0 -75z m1465 -43 l-3
-120 -40 0 -39 0 0 120 0 120 43 0 42 0 -3 -120z m-2796 45 c-6 -37 -13 -48
-37 -61 -24 -12 -30 -21 -28 -42 2 -15 -2 -36 -9 -47 -9 -16 -11 -6 -12 61 0
79 1 82 25 88 14 4 32 18 41 31 22 34 28 25 20 -30z m1531 -12 c-2 -16 -4 -5
-4 22 0 28 2 40 4 28 2 -13 2 -35 0 -50z m-1135 -4 c74 -25 138 -85 138 -130
0 -16 -4 -29 -10 -29 -5 0 -10 9 -10 20 0 26 -43 54 -70 45 -16 -5 -32 5 -75
48 -76 76 -74 80 27 46z m1418 -59 c23 -15 35 -15 -473 -12 -249 1 -376 5
-372 12 8 13 824 13 845 0z m124 -88 c34 -39 94 -72 133 -73 15 0 37 -5 48
-10 14 -7 4 -8 -36 -5 -85 6 -161 52 -195 118 -20 38 -17 58 4 28 9 -13 30
-40 46 -58z m-1166 56 c-3 -7 -19 -14 -36 -16 -25 -3 -39 -13 -62 -48 -25 -35
-37 -44 -60 -44 -30 0 -30 0 -30 60 l0 60 96 0 c72 0 95 -3 92 -12z m145 -19
c-35 -61 -144 -133 -190 -127 -25 4 -26 5 -8 12 57 21 109 53 157 96 29 27 54
49 56 50 2 0 -5 -14 -15 -31z m1097 -60 c19 -16 26 -26 15 -20 -25 12 -105 92
-105 105 0 6 12 -4 28 -22 15 -18 43 -46 62 -63z m190 36 l0 -55 -63 0 c-55 0
-70 4 -103 29 -21 15 -50 40 -63 55 l-24 26 126 0 127 0 0 -55z m-587 28
c-123 -2 -323 -2 -445 0 -123 1 -23 2 222 2 245 0 345 -1 223 -2z m242 -43 c4
-7 -153 -10 -464 -10 -307 0 -471 3 -471 10 0 7 161 10 464 10 299 0 467 -4
471 -10z m492 -15 l28 -24 -42 -1 c-44 0 -59 11 -49 35 8 22 31 18 63 -10z
m-472 -25 c12 -5 -195 -9 -488 -9 -336 -1 -506 2 -502 9 8 12 961 12 990 0z
m1015 0 c0 -6 -47 -10 -120 -10 -73 0 -120 4 -120 10 0 6 47 10 120 10 73 0
120 -4 120 -10z m-523 -36 c14 -4 21 -13 20 -26 -1 -20 -6 -20 -87 -15 -87 6
-150 22 -150 38 0 10 182 12 217 3z m513 -9 c284 -12 484 -47 542 -95 l23 -20
-45 5 c-25 2 -70 7 -100 10 -30 3 -188 10 -350 15 -283 8 -330 12 -330 30 0 5
8 10 18 12 13 3 8 10 -20 27 -21 13 -38 25 -38 28 0 2 35 2 78 -1 42 -3 142
-8 222 -11z m-970 -5 c0 -7 -185 -10 -536 -10 -354 0 -533 3 -529 10 4 6 193
10 536 10 346 0 529 -3 529 -10z m-1273 -11 c-9 -6 -49 -13 -87 -16 -57 -5
-68 -8 -59 -19 23 -28 -40 -34 -365 -34 -178 0 -381 -5 -452 -11 -71 -6 -145
-9 -164 -7 -35 3 -35 3 23 26 128 49 352 68 842 70 196 1 275 -2 262 -9z m133
-38 c0 -37 -13 -50 -52 -51 -13 0 -9 78 5 83 36 15 47 7 47 -32z m1340 -12 c0
-37 -2 -39 -30 -39 -29 0 -30 2 -30 43 0 43 1 43 30 39 27 -4 30 -8 30 -43z
m-453 34 c-159 -2 -415 -2 -570 0 -155 1 -25 2 288 2 314 0 440 -1 282 -2z
m611 -29 c29 -3 51 -8 49 -10 -3 -4 -52 -13 -154 -30 -31 -5 -33 -3 -33 27 0
31 0 31 43 26 23 -3 66 -9 95 -13z m-344 0 c129 -18 -6 -24 -539 -24 -360 0
-585 4 -585 9 0 6 19 12 43 14 74 6 1032 7 1081 1z m-2127 -70 c-3 -3 -12 -4
-19 -1 -8 3 -5 6 6 6 11 1 17 -2 13 -5z"/>
<path d="M2813 3055 c0 -22 2 -30 4 -17 2 12 2 30 0 40 -3 9 -5 -1 -4 -23z"/>
<path d="M1760 2210 l0 -140 50 0 50 0 0 140 0 140 -50 0 -50 0 0 -140z"/>
<path d="M3017 2141 c-4 -52 -5 -97 -2 -99 12 -13 16 12 13 99 l-3 94 -8 -94z"/>
<path d="M3470 2175 l0 -175 85 0 85 0 0 175 0 175 -85 0 -85 0 0 -175z m150
135 c0 -18 -7 -20 -60 -20 -53 0 -60 2 -60 20 0 18 7 20 60 20 53 0 60 -2 60
-20z m0 -280 c0 -6 -28 -10 -65 -10 -37 0 -65 4 -65 10 0 6 28 10 65 10 37 0
65 -4 65 -10z"/>
<path d="M3470 1665 l0 -205 85 0 85 0 0 205 0 205 -85 0 -85 0 0 -205z m117
178 c-20 -2 -52 -2 -70 0 -17 2 0 4 38 4 39 0 53 -2 32 -4z m33 -348 c0 -12
-13 -15 -60 -15 -47 0 -60 3 -60 15 0 12 13 15 60 15 47 0 60 -3 60 -15z"/>
<path d="M3868 1983 l-68 -4 0 -134 0 -135 85 0 85 0 0 109 c0 122 -7 172 -24
169 -6 -1 -41 -3 -78 -5z m-23 -90 c4 -21 9 -47 12 -58 4 -18 3 -18 -12 3 -20
28 -32 92 -17 92 6 0 14 -17 17 -37z m25 -123 c0 -5 -10 -10 -22 -9 -22 0 -22
1 -3 9 11 5 21 9 23 9 1 1 2 -3 2 -9z"/>
<path d="M3807 1653 c-4 -3 -7 -48 -7 -100 l0 -93 80 0 80 0 0 100 0 100 -73
0 c-41 0 -77 -3 -80 -7z m133 -33 c0 -18 -7 -20 -60 -20 -53 0 -60 2 -60 20 0
18 7 20 60 20 53 0 60 -2 60 -20z"/>
<path d="M2415 1659 c-108 -14 -222 -53 -304 -106 -69 -43 -73 -48 -50 -54 13
-4 70 -7 125 -8 l102 -1 4 55 c5 63 4 61 41 70 l27 7 0 -66 0 -66 293 0 c160
0 302 3 315 6 19 6 12 13 -55 56 -94 59 -203 95 -327 108 -50 5 -93 9 -96 9
-3 -1 -36 -5 -75 -10z m278 -46 c4 -2 7 -29 7 -59 l0 -54 -35 0 -35 0 0 65 0
65 28 -6 c15 -4 30 -9 35 -11z"/>
<path d="M3120 1095 l0 -135 30 0 30 0 0 135 0 135 -30 0 -30 0 0 -135z"/>
<path d="M3475 1170 l0 -90 78 0 77 0 0 90 0 90 -77 0 -78 0 0 -90z"/>
<path d="M4080 2635 c-15 -18 -81 -20 -113 -4 -19 9 -18 7 3 -10 49 -40 106
-36 130 9 13 23 -2 27 -20 5z"/>
<path d="M3810 1155 l0 -115 75 0 75 0 0 115 0 115 -75 0 -75 0 0 -115z m122
30 l-4 -65 -49 0 -49 0 0 65 0 65 53 0 52 0 -3 -65z"/>
<path d="M2202 513 c175 -2 461 -2 635 0 175 1 32 2 -317 2 -349 0 -492 -1
-318 -2z"/>
</g>
</svg>